<!-- Generator: Adobe Illustrator 23.0.3, SVG Export Plug-In  -->
<svg version="1.1" xmlns="http://www.w3.org/2000/svg" xmlns:xlink="http://www.w3.org/1999/xlink" x="0px" y="0px" width="398.429px" height="107.549px" viewBox="0 0 398.429 107.549" style="enable-background:new 0 0 398.429 107.549;" xml:space="preserve">
<style type="text/css">
	.st0{fill:#FFFFFF;}
</style>
<defs>
</defs>
<g>
	<path class="st0" d="M74.508,45.963c0.123,0.494,0.252,0.962,0.388,1.406c0.136,0.444,0.265,0.888,0.389,1.332   c0.123,0.444,0.259,0.888,0.407,1.332c0.148,0.444,0.296,0.876,0.444,1.295l3.996,11.84c0.024,0.099,0.049,0.191,0.074,0.277   c0.024,0.087,0.049,0.167,0.074,0.241c0,0.073,0.012,0.147,0.037,0.221c0.024,0.074,0.049,0.148,0.074,0.223   c0.049,0.148,0.098,0.296,0.148,0.443c0.049,0.148,0.099,0.285,0.148,0.408c0.099,0.295,0.204,0.592,0.314,0.887   c0.111,0.297,0.216,0.593,0.315,0.889c0.123,0.296,0.24,0.586,0.351,0.869c0.111,0.284,0.228,0.562,0.352,0.833   c0.148,0.321,0.314,0.586,0.5,0.796c0.185,0.209,0.401,0.363,0.647,0.462s0.512,0.185,0.796,0.259   c0.283,0.074,0.585,0.137,0.906,0.186v0.037h0.037c0.024,0,0.049,0,0.074,0v1.184c-0.173,0-0.351,0-0.536,0s-0.364,0-0.537,0   c-0.198,0-0.383-0.006-0.555-0.019c-0.173-0.013-0.358-0.019-0.555-0.019c-0.37-0.024-0.734-0.043-1.092-0.055   c-0.358-0.013-0.709-0.02-1.054-0.02c-0.148,0-0.291,0-0.426,0c-0.136,0-0.265,0-0.388,0c-0.148,0.025-0.291,0.037-0.426,0.037   c-0.136,0-0.265,0-0.389,0c-0.247,0.025-0.499,0.043-0.758,0.056c-0.259,0.013-0.524,0.019-0.795,0.019c-0.099,0-0.198,0-0.296,0   c-0.099,0-0.185,0-0.259,0c-0.099,0-0.191,0-0.277,0c-0.087,0-0.167,0-0.241,0v-1.258c0,0.049,0.006,0.074,0.019,0.074   c0.012,0,0.031,0,0.056,0c0.024,0,0.049,0,0.074,0s0.049,0,0.074,0c0.024,0,0.049,0,0.074,0c0.024,0,0.049-0.013,0.074-0.037   c0.024,0,0.056,0,0.093,0c0.037,0,0.067,0,0.092,0c0.024,0,0.049,0,0.074,0c0.024,0,0.061-0.012,0.111-0.037   c0.024,0,0.056,0,0.092,0c0.037,0,0.068,0,0.093,0c0.172-0.024,0.333-0.062,0.481-0.111c0.148-0.049,0.296-0.111,0.444-0.186   c0.148-0.073,0.259-0.178,0.333-0.314c0.074-0.135,0.111-0.289,0.111-0.462c0-0.024,0-0.05,0-0.073c0-0.025,0-0.05,0-0.074   c-0.024-0.025-0.037-0.05-0.037-0.074s0-0.049,0-0.074c0-0.024,0-0.049,0-0.074c0-0.023,0-0.049,0-0.074   c-0.025-0.023-0.037-0.055-0.037-0.092s0-0.068,0-0.093c-0.025-0.074-0.043-0.16-0.056-0.259c-0.013-0.099-0.043-0.197-0.092-0.297   c-0.025-0.098-0.05-0.189-0.074-0.277c-0.025-0.086-0.05-0.178-0.074-0.277c-0.025-0.049-0.05-0.104-0.074-0.166   c-0.025-0.062-0.05-0.117-0.074-0.166c-0.025-0.05-0.043-0.105-0.056-0.167c-0.013-0.062-0.019-0.117-0.019-0.167l-1.628-5.143   h-7.733l-1.332,3.736c-0.025,0.125-0.05,0.223-0.074,0.297c-0.025,0.074-0.05,0.147-0.074,0.222   c-0.025,0.024-0.043,0.056-0.056,0.093c-0.013,0.037-0.019,0.068-0.019,0.092c-0.025,0.051-0.043,0.088-0.056,0.111   c-0.013,0.025-0.018,0.062-0.018,0.111c-0.099,0.246-0.185,0.487-0.259,0.721c-0.074,0.235-0.148,0.476-0.222,0.723   c-0.074,0.246-0.13,0.486-0.167,0.721c-0.037,0.234-0.056,0.463-0.056,0.685c0,0.173,0.031,0.327,0.092,0.463   s0.167,0.24,0.314,0.314c0.148,0.073,0.302,0.136,0.463,0.185c0.16,0.05,0.327,0.1,0.5,0.148c0.049,0,0.086,0,0.111,0   c0.024,0,0.061,0,0.111,0c0.024,0.025,0.056,0.037,0.093,0.037c0.037,0,0.067,0,0.092,0c0.024,0,0.049,0,0.074,0   c0.024,0,0.061,0,0.111,0c0.024,0.024,0.056,0.037,0.092,0.037c0.037,0,0.068,0,0.093,0c0.024,0,0.049,0,0.074,0s0.049,0,0.074,0   v1.184c-0.173,0-0.339,0-0.5,0c-0.161,0-0.314,0-0.462,0c-0.173,0-0.339-0.006-0.5-0.019c-0.161-0.013-0.327-0.019-0.5-0.019   c-0.321-0.024-0.642-0.043-0.962-0.055c-0.321-0.013-0.642-0.02-0.962-0.02c-0.321,0-0.635,0.007-0.943,0.02   c-0.309,0.012-0.61,0.03-0.906,0.055c-0.296,0.025-0.592,0.037-0.888,0.037s-0.58,0-0.851,0l-0.074-1.258   c0.049,0.025,0.086,0.049,0.111,0.074c0.024,0,0.049,0,0.074,0c0.024,0,0.042,0,0.055,0c0.012,0,0.031-0.013,0.056-0.037   c0.024,0,0.042,0,0.056,0c0.012,0,0.03,0,0.055,0c0.049,0,0.098,0,0.148,0c0.049,0,0.111-0.012,0.185-0.037   c0.049,0,0.098-0.006,0.148-0.019c0.049-0.013,0.099-0.019,0.148-0.019c0.099-0.024,0.197-0.056,0.296-0.093   c0.098-0.036,0.197-0.067,0.296-0.093c0.098-0.049,0.197-0.11,0.296-0.185c0.098-0.073,0.197-0.173,0.296-0.296   s0.204-0.26,0.314-0.407c0.111-0.147,0.216-0.308,0.314-0.481c0.124-0.196,0.241-0.4,0.352-0.609   c0.111-0.21,0.216-0.438,0.314-0.686c0.049-0.123,0.099-0.246,0.148-0.369s0.111-0.246,0.185-0.37   c0.049-0.124,0.099-0.247,0.148-0.37s0.099-0.246,0.148-0.37c0.148-0.394,0.296-0.776,0.444-1.147   c0.148-0.369,0.283-0.727,0.407-1.072s0.234-0.653,0.333-0.926c0.099-0.271,0.185-0.492,0.259-0.666l2.775-7.437   c0.123-0.271,0.241-0.561,0.352-0.87c0.111-0.308,0.228-0.623,0.352-0.943c0.123-0.32,0.246-0.641,0.37-0.962   c0.123-0.32,0.246-0.641,0.37-0.962c0.124-0.296,0.241-0.604,0.352-0.925c0.111-0.32,0.228-0.641,0.352-0.962   c0.049-0.148,0.104-0.302,0.167-0.462c0.062-0.16,0.129-0.327,0.204-0.5c0.049-0.148,0.104-0.302,0.167-0.462   c0.061-0.16,0.117-0.314,0.167-0.462v-0.074L74.508,45.963z M72.88,50.255l-3.478,9.509h6.512L72.88,50.255z"/>
	<path class="st0" d="M94.247,46.777c0.135,0.025,0.265,0.037,0.388,0.037c0.074,0,0.142,0,0.204,0c0.062,0,0.129,0,0.204,0   c0.049,0.025,0.111,0.037,0.185,0.037c0.074,0,0.148,0,0.222,0c0.074,0,0.142,0,0.204,0c0.062,0,0.129,0,0.204,0   c0.049,0.024,0.104,0.037,0.167,0.037c0.061,0,0.129,0,0.204,0c0.123,0,0.252,0,0.388,0c0.135,0,0.278,0,0.426,0   c0.049,0,0.104,0,0.167,0c0.061,0,0.129,0,0.204,0c0.049,0,0.104,0,0.167,0c0.061,0,0.117,0,0.167,0c0.049,0,0.104,0,0.167,0   c0.061,0,0.129-0.012,0.203-0.037c0.049,0,0.105,0,0.167,0s0.129,0,0.204,0c0.049,0,0.104,0,0.167,0   c0.062,0,0.117-0.012,0.167-0.037c0.049,0,0.104,0,0.167,0c0.062,0,0.117,0,0.167,0c0.123,0,0.246-0.006,0.37-0.019   c0.123-0.012,0.246-0.031,0.37-0.056l0.259,0.222l14.393,18.943v-8.583v-2.146l-0.148-3.848c-0.025-0.616-0.081-1.141-0.167-1.572   c-0.087-0.431-0.204-0.771-0.352-1.018c-0.148-0.222-0.432-0.394-0.851-0.518c-0.42-0.123-0.962-0.197-1.628-0.222v-1.332   c0.148,0.049,0.302,0.086,0.462,0.111c0.16,0.025,0.327,0.037,0.5,0.037c0.172,0.025,0.339,0.043,0.5,0.055   c0.16,0.013,0.327,0.019,0.5,0.019c0.148,0.025,0.302,0.037,0.462,0.037c0.16,0,0.327,0,0.5,0c0.172,0,0.339,0,0.5,0   c0.16,0,0.327,0,0.5,0c0.172,0,0.339,0,0.5,0c0.16,0,0.327,0,0.5,0c0.074,0,0.148,0,0.222,0c0.074,0,0.16-0.012,0.259-0.037   c0.074,0,0.154,0,0.241,0c0.086,0,0.179,0,0.277,0c0.148,0,0.302-0.006,0.462-0.019c0.16-0.012,0.327-0.03,0.5-0.055   c0.172,0,0.339-0.006,0.5-0.019c0.16-0.012,0.327-0.031,0.5-0.056v1.184c-0.05,0.05-0.105,0.074-0.167,0.074   c-0.062,0-0.117,0-0.167,0c-0.074,0-0.136,0-0.185,0c-0.05,0-0.099,0-0.148,0c-0.124,0.024-0.24,0.043-0.352,0.055   c-0.111,0.013-0.228,0.031-0.352,0.056c-0.099,0.025-0.203,0.062-0.314,0.111c-0.111,0.05-0.216,0.099-0.314,0.148   c-0.148,0.099-0.271,0.216-0.37,0.352c-0.099,0.136-0.185,0.291-0.259,0.462c-0.025,0.099-0.056,0.191-0.092,0.278   c-0.037,0.086-0.068,0.167-0.093,0.24c0,0.099-0.013,0.191-0.037,0.278c-0.025,0.086-0.037,0.179-0.037,0.277   c-0.025,0.099-0.037,0.204-0.037,0.314s0,0.229,0,0.352c0,0.099,0,0.204,0,0.314s0,0.204,0,0.277v0.148l-0.074,3.922l-0.148,16.391   h-0.666l-2.257-2.886L98.557,50.145l0.074,10.952c0,0.124,0,0.235,0,0.333c0,0.1,0,0.186,0,0.26c0,0.024,0,0.061,0,0.11   s0,0.087,0,0.11c0,0.051,0,0.094,0,0.131c0,0.036,0,0.08,0,0.129c0,0.246,0,0.494,0,0.74s0.012,0.48,0.037,0.703   c0,0.246,0.006,0.493,0.019,0.74c0.012,0.246,0.019,0.493,0.019,0.739c0,0.469,0.019,0.943,0.055,1.425   c0.037,0.48,0.08,0.969,0.13,1.461c0.049,0.494,0.148,0.9,0.296,1.221c0.148,0.321,0.333,0.543,0.555,0.666   c0.222,0.125,0.5,0.217,0.833,0.278s0.734,0.093,1.203,0.093v1.146c-0.173,0-0.346,0-0.518,0c-0.173,0-0.346,0-0.518,0   c-0.173,0-0.346-0.006-0.518-0.019c-0.173-0.013-0.346-0.03-0.518-0.056c-0.173,0-0.352,0-0.537,0s-0.364,0-0.537,0   c-0.099,0-0.191,0-0.277,0c-0.087,0-0.167-0.012-0.241-0.037c-0.099,0-0.191,0-0.277,0c-0.087,0-0.167,0-0.241,0   c-0.074,0-0.154,0-0.24,0c-0.087,0-0.167,0-0.241,0c-0.099,0.025-0.185,0.037-0.259,0.037c-0.074,0-0.148,0-0.222,0   c-0.074,0-0.148,0-0.222,0c-0.074,0-0.148,0-0.222,0c-0.074,0.025-0.148,0.037-0.222,0.037c-0.074,0-0.148,0-0.222,0   c-0.05,0-0.093,0-0.13,0c-0.037,0-0.08,0-0.129,0c-0.025,0.025-0.055,0.037-0.092,0.037s-0.081,0-0.129,0c-0.025,0-0.062,0-0.111,0   c-0.05,0-0.086,0-0.111,0c-0.05,0-0.093,0-0.129,0c-0.037,0-0.081,0-0.13,0c-0.024,0-0.062,0-0.111,0c-0.05,0-0.086,0-0.111,0   c-0.05,0-0.093,0-0.129,0c-0.037,0-0.081,0-0.13,0c-0.074,0-0.148,0-0.222,0c-0.074,0-0.148,0-0.222,0v-1.221   c0.715,0.049,1.276-0.012,1.684-0.186c0.407-0.172,0.672-0.419,0.795-0.74c0.123-0.345,0.216-0.745,0.277-1.202   c0.062-0.456,0.105-0.968,0.13-1.535c0-0.024,0-0.05,0-0.074s0-0.043,0-0.056c0-0.012,0-0.03,0-0.055l0.074-2.701l0.148-11.174   V51.18c0-0.641-0.055-1.178-0.167-1.609c-0.111-0.431-0.265-0.733-0.462-0.906c-0.222-0.172-0.537-0.315-0.943-0.426   c-0.407-0.111-0.919-0.191-1.536-0.24v-1.332C93.981,46.716,94.111,46.753,94.247,46.777z"/>
	<path class="st0" d="M150.357,53.363c-0.222-0.912-0.543-1.708-0.962-2.386c-0.42-0.678-0.95-1.24-1.591-1.684   c-0.617-0.444-1.332-0.777-2.146-0.999c-0.814-0.222-1.702-0.333-2.664-0.333c-1.727,0-3.219,0.309-4.477,0.925   c-1.258,0.617-2.294,1.542-3.108,2.775c-0.814,1.209-1.425,2.51-1.832,3.904c-0.407,1.394-0.61,2.855-0.61,4.384   c0,1.432,0.215,2.764,0.647,3.996c0.431,1.234,1.091,2.356,1.979,3.367c0.863,0.987,1.887,1.733,3.071,2.238   c1.184,0.506,2.528,0.759,4.033,0.759c0.715,0,1.362-0.049,1.942-0.147c0.579-0.099,1.091-0.26,1.536-0.481   c0.419-0.196,0.74-0.542,0.962-1.036c0.222-0.492,0.333-1.122,0.333-1.887v-0.889c0-0.666-0.037-1.221-0.111-1.664   c-0.074-0.444-0.185-0.752-0.333-0.926c-0.148-0.197-0.457-0.352-0.925-0.462c-0.469-0.11-1.098-0.179-1.887-0.204l-0.851-0.11   V61.17c0.419,0.099,0.833,0.167,1.239,0.204c0.407,0.036,0.808,0.067,1.203,0.092c0.197,0,0.394,0.006,0.592,0.019   c0.197,0.013,0.407,0.019,0.629,0.019c0.197,0,0.395,0,0.592,0c0.197,0,0.394,0,0.592,0c0.395,0,0.783-0.006,1.166-0.019   c0.382-0.013,0.771-0.03,1.166-0.056c0.395-0.023,0.783-0.055,1.166-0.092c0.382-0.037,0.771-0.068,1.166-0.094v1.259   c-0.518,0.05-0.931,0.13-1.239,0.24c-0.309,0.111-0.524,0.241-0.648,0.389c-0.124,0.173-0.222,0.425-0.296,0.759   c-0.074,0.332-0.124,0.758-0.148,1.276v2.108c0,0.297,0,0.574,0,0.833s0.012,0.513,0.037,0.759c0.024,0.246,0.061,0.493,0.111,0.74   c0.049,0.246,0.111,0.493,0.185,0.739c-0.568,0.198-1.141,0.383-1.72,0.556c-0.58,0.172-1.166,0.32-1.758,0.443   c-0.296,0.025-0.592,0.062-0.888,0.111c-0.296,0.049-0.58,0.098-0.851,0.148c-0.296,0.049-0.592,0.092-0.888,0.129   s-0.592,0.067-0.888,0.092c-0.124,0-0.247,0-0.37,0c-0.124,0-0.247,0-0.37,0c-0.05,0-0.105,0-0.167,0   c-0.062,0-0.117,0.013-0.167,0.037c-0.074,0-0.142,0-0.204,0c-0.062,0-0.117,0-0.167,0c-1.801,0-3.472-0.253-5.013-0.758   c-1.542-0.506-2.942-1.289-4.2-2.35c-1.283-1.061-2.238-2.331-2.868-3.811c-0.629-1.48-0.943-3.17-0.943-5.069   c0-2.121,0.302-4.002,0.907-5.643c0.604-1.64,1.51-3.053,2.719-4.237c1.233-1.184,2.67-2.078,4.311-2.682   c1.64-0.604,3.509-0.907,5.605-0.907c0.074,0,0.142,0,0.204,0c0.061,0,0.129,0,0.204,0c0.049,0.025,0.104,0.037,0.167,0.037   c0.061,0,0.129,0,0.203,0c0.074,0,0.142,0,0.204,0c0.062,0,0.129,0,0.204,0c0.049,0.025,0.111,0.037,0.185,0.037   c0.074,0,0.148,0,0.222,0c0.542,0.05,1.079,0.117,1.61,0.204c0.53,0.086,1.066,0.191,1.609,0.314   c0.518,0.124,1.036,0.253,1.554,0.388c0.518,0.136,1.036,0.278,1.554,0.426l0.592,5.365L150.357,53.363z"/>
	<path class="st0" d="M178.625,52.031v0.037c-0.025,0-0.037-0.012-0.037-0.037c0-0.024,0-0.049,0-0.074   c-0.025-0.049-0.043-0.105-0.056-0.167s-0.019-0.13-0.019-0.204c0-0.049-0.006-0.086-0.019-0.111s-0.019-0.062-0.019-0.111   c-0.024-0.024-0.037-0.055-0.037-0.092s0-0.068,0-0.093c-0.024-0.197-0.067-0.375-0.129-0.536c-0.062-0.16-0.13-0.327-0.204-0.5   c-0.073-0.172-0.166-0.333-0.277-0.481c-0.11-0.148-0.229-0.271-0.352-0.37c-0.173-0.148-0.376-0.278-0.61-0.389   s-0.487-0.204-0.759-0.277c-0.123-0.024-0.253-0.049-0.388-0.074c-0.137-0.024-0.266-0.049-0.389-0.074   c-0.148-0.024-0.29-0.043-0.426-0.056c-0.136-0.012-0.266-0.031-0.389-0.056c-0.074,0-0.147,0-0.222,0s-0.136-0.012-0.186-0.037   c-0.073,0-0.142,0-0.203,0s-0.13,0-0.203,0c-0.148,0-0.284,0-0.407,0c-0.124,0-0.247,0-0.37,0c-0.099,0-0.203,0-0.314,0   s-0.229,0-0.352,0c-0.099,0-0.197,0-0.296,0s-0.197,0-0.296,0c-0.099,0.024-0.204,0.037-0.314,0.037c-0.111,0-0.229,0-0.352,0   c-0.05,0-0.099,0-0.148,0s-0.099,0-0.147,0c-0.074,0-0.136,0-0.186,0s-0.099,0-0.147,0c-0.247,0-0.463,0.013-0.647,0.037   c-0.186,0.025-0.314,0.062-0.389,0.111c-0.099,0.05-0.167,0.148-0.203,0.296c-0.037,0.148-0.056,0.358-0.056,0.629v8.509h3.885   c0.641,0.051,1.202,0.037,1.684-0.036c0.48-0.074,0.882-0.185,1.202-0.333c0.296-0.148,0.524-0.438,0.685-0.87   c0.16-0.431,0.24-0.993,0.24-1.684l1.295-0.074c-0.024,0.346-0.043,0.679-0.055,0.999c-0.013,0.321-0.019,0.629-0.019,0.925   c0,0.321,0,0.635,0,0.943c0,0.309,0,0.623,0,0.943c0,0.074,0,0.148,0,0.223s0,0.147,0,0.222c0,0.099,0,0.185,0,0.259   s0,0.148,0,0.223c0,0.073,0,0.147,0,0.221c0,0.074,0.012,0.148,0.037,0.223c0,0.074,0,0.148,0,0.223c0,0.073,0,0.147,0,0.221   c0,0.074,0,0.148,0,0.223s0.012,0.148,0.036,0.223c0,0.098,0.006,0.185,0.019,0.258c0.013,0.074,0.019,0.148,0.019,0.223   c0,0.148,0.006,0.296,0.019,0.443c0.013,0.148,0.031,0.297,0.056,0.444l-1.406-0.073c-0.024-0.691-0.117-1.246-0.277-1.666   c-0.16-0.418-0.389-0.678-0.685-0.776c-0.296-0.124-0.69-0.216-1.184-0.278c-0.494-0.061-1.086-0.092-1.776-0.092l-3.773-0.074   v5.069v1.405c0,0.1,0,0.186,0,0.26s0,0.136,0,0.185c0,0.074,0,0.143,0,0.204s0,0.117,0,0.166c0,0.247,0.006,0.48,0.019,0.703   c0.012,0.223,0.03,0.443,0.055,0.666s0.056,0.406,0.093,0.555s0.093,0.271,0.167,0.37c0.073,0.124,0.16,0.229,0.259,0.314   c0.099,0.087,0.209,0.155,0.333,0.204c0.123,0.049,0.253,0.092,0.389,0.129c0.135,0.037,0.277,0.068,0.425,0.093   c0.223,0.024,0.444,0.056,0.666,0.093c0.223,0.037,0.444,0.055,0.666,0.055c0.223,0,0.444,0,0.666,0c0.223,0,0.444,0,0.666,0   l1.073-0.074c0.938,0.051,1.739,0.025,2.405-0.073s1.221-0.259,1.665-0.481c0.443-0.222,0.845-0.622,1.202-1.202   c0.357-0.579,0.672-1.338,0.943-2.275l1.259,0.259l-1.259,5.328c-0.518,0-1.03,0-1.535,0c-0.506,0-1.006-0.012-1.499-0.037   c-0.246,0-0.493,0-0.739,0c-0.247,0-0.494-0.012-0.74-0.037c-0.247,0-0.494,0-0.74,0c-0.247,0-0.493,0-0.74,0   c-0.123,0-0.246,0-0.369,0c-0.124,0-0.247-0.012-0.37-0.037c-0.148,0-0.284,0-0.407,0c-0.124,0-0.247,0-0.37,0   c-0.247,0-0.494,0-0.74,0s-0.493,0-0.739,0l-4.219-0.037c-0.395,0.051-0.783,0.087-1.165,0.111   c-0.383,0.025-0.759,0.037-1.129,0.037c-0.173,0-0.357,0-0.555,0c-0.198,0-0.395,0-0.592,0c-0.173,0-0.358,0-0.556,0   s-0.395,0-0.592,0v-1.295c0.469,0.05,0.882,0.043,1.239-0.019s0.66-0.153,0.907-0.277c0.246-0.124,0.431-0.352,0.555-0.685   c0.123-0.333,0.197-0.759,0.222-1.276l0.037-2.517v-12.58l-0.037-2.405c-0.024-0.493-0.099-0.906-0.222-1.239   c-0.124-0.333-0.309-0.561-0.555-0.685c-0.247-0.123-0.55-0.216-0.907-0.277s-0.771-0.093-1.239-0.093v-1.369   c0.346,0.049,0.69,0.092,1.036,0.129c0.345,0.037,0.69,0.056,1.036,0.056c0.345,0.024,0.69,0.037,1.036,0.037   c0.345,0,0.69,0,1.036,0c0.345,0.025,0.685,0.037,1.018,0.037s0.671,0,1.017,0s0.69,0,1.036,0s0.69,0,1.036,0   c0.173,0,0.346,0,0.519,0c0.172,0,0.345,0,0.518,0c0.148,0,0.309,0,0.481,0c0.172,0,0.345,0,0.518,0c0.172,0,0.345,0,0.518,0   s0.346-0.012,0.519-0.037c0.172,0,0.345,0,0.518,0s0.346,0,0.519,0c0.345,0,0.685-0.006,1.018-0.019   c0.333-0.012,0.659-0.03,0.98-0.055c0.345,0,0.69-0.006,1.036-0.019c0.345-0.012,0.689-0.031,1.035-0.056l0.556,4.995   L178.625,52.031z"/>
	<path class="st0" d="M209.741,66.203l-1.554,5.18c-0.986-0.024-1.979-0.043-2.979-0.056s-2.004-0.019-3.016-0.019   c-0.493,0-0.993,0-1.498,0c-0.506,0-1.006-0.012-1.499-0.037c-0.518,0-1.03,0-1.535,0c-0.506,0-1.006,0-1.498,0   c-0.37,0-0.74,0.007-1.11,0.02c-0.37,0.012-0.74,0.03-1.11,0.055c-0.173,0-0.357,0.006-0.555,0.019   c-0.198,0.013-0.383,0.019-0.555,0.019c-0.198,0-0.389,0-0.574,0c-0.185,0-0.376,0-0.573,0v-1.295   c0.469,0.05,0.882,0.043,1.239-0.019s0.66-0.153,0.907-0.277c0.246-0.124,0.431-0.352,0.555-0.685   c0.123-0.333,0.185-0.759,0.185-1.276l0.074-2.517v-12.58l-0.074-2.405c0-0.493-0.062-0.906-0.185-1.239   c-0.124-0.333-0.321-0.561-0.592-0.685c-0.247-0.123-0.55-0.216-0.907-0.277s-0.758-0.093-1.202-0.093v-1.369   c0.099,0.049,0.19,0.08,0.277,0.092c0.086,0.013,0.179,0.019,0.277,0.019c0.074,0.025,0.154,0.037,0.241,0.037   c0.086,0,0.179,0,0.277,0c0.098,0,0.19,0.006,0.277,0.019c0.086,0.013,0.179,0.019,0.277,0.019c0.074,0.024,0.154,0.037,0.24,0.037   c0.087,0,0.179,0,0.278,0c0.073,0,0.153,0,0.24,0c0.086,0,0.179,0,0.277,0c0.074,0.025,0.153,0.037,0.24,0.037   c0.086,0,0.179,0,0.277,0c0.197,0,0.389,0,0.574,0c0.185,0,0.363,0,0.536,0c0.395,0,0.789,0,1.184,0s0.79-0.012,1.185-0.037   c0.419,0,0.832-0.019,1.239-0.055c0.407-0.037,0.808-0.068,1.203-0.093v1.221h-0.481c-0.469,0.05-0.863,0.117-1.184,0.204   c-0.321,0.086-0.58,0.203-0.777,0.351c-0.173,0.148-0.314,0.376-0.426,0.685c-0.11,0.309-0.166,0.709-0.166,1.203l-0.037,2.331   v12.21v2.293c0,0.1,0,0.18,0,0.241s0,0.117,0,0.167c0,0.049,0,0.098,0,0.147s0.012,0.099,0.037,0.147   c0,0.174,0.019,0.346,0.056,0.519c0.036,0.173,0.079,0.333,0.129,0.481c0.049,0.147,0.117,0.283,0.204,0.406   c0.086,0.124,0.203,0.223,0.351,0.297c0.099,0.073,0.223,0.129,0.37,0.166c0.148,0.037,0.32,0.068,0.519,0.092   c0.197,0.025,0.407,0.044,0.629,0.057c0.222,0.012,0.444,0.018,0.666,0.018c0.049,0,0.098,0,0.147,0s0.099,0,0.148,0   c0.049,0,0.104,0,0.166,0s0.117,0,0.167,0c0.962,0,1.831-0.037,2.608-0.111c0.777-0.073,1.437-0.197,1.979-0.369   c0.567-0.172,1.066-0.555,1.499-1.147c0.431-0.592,0.808-1.394,1.128-2.405v-0.074L209.741,66.203z"/>
	<path class="st0" d="M236.436,46.777c0.136,0.025,0.265,0.037,0.389,0.037c0.074,0,0.142,0,0.204,0c0.061,0,0.129,0,0.203,0   c0.049,0.025,0.111,0.037,0.185,0.037c0.074,0,0.148,0,0.223,0c0.073,0,0.142,0,0.203,0s0.13,0,0.203,0   c0.05,0.024,0.105,0.037,0.167,0.037s0.13,0,0.203,0c0.123,0,0.253,0,0.389,0s0.277,0,0.426,0c0.049,0,0.104,0,0.166,0   s0.13,0,0.204,0c0.049,0,0.104,0,0.166,0s0.117,0,0.167,0c0.049,0,0.104,0,0.166,0s0.13-0.012,0.204-0.037c0.049,0,0.104,0,0.166,0   s0.13,0,0.204,0c0.049,0,0.104,0,0.166,0s0.117-0.012,0.167-0.037c0.049,0,0.104,0,0.166,0s0.117,0,0.167,0   c0.123,0,0.246-0.006,0.369-0.019c0.123-0.012,0.247-0.031,0.37-0.056l0.259,0.222l14.394,18.943v-8.583v-2.146l-0.148-3.848   c-0.024-0.616-0.08-1.141-0.166-1.572c-0.087-0.431-0.204-0.771-0.352-1.018c-0.148-0.222-0.432-0.394-0.851-0.518   c-0.42-0.123-0.963-0.197-1.629-0.222v-1.332c0.148,0.049,0.302,0.086,0.463,0.111c0.16,0.025,0.327,0.037,0.5,0.037   c0.172,0.025,0.338,0.043,0.499,0.055c0.16,0.013,0.326,0.019,0.499,0.019c0.148,0.025,0.303,0.037,0.463,0.037s0.327,0,0.5,0   c0.172,0,0.338,0,0.499,0c0.16,0,0.327,0,0.5,0c0.172,0,0.338,0,0.499,0c0.16,0,0.327,0,0.5,0c0.073,0,0.147,0,0.222,0   s0.16-0.012,0.259-0.037c0.074,0,0.154,0,0.24,0c0.087,0,0.179,0,0.278,0c0.147,0,0.302-0.006,0.462-0.019   c0.16-0.012,0.327-0.03,0.5-0.055c0.172,0,0.339-0.006,0.499-0.019c0.16-0.012,0.327-0.031,0.5-0.056v1.184   c-0.05,0.05-0.105,0.074-0.167,0.074s-0.117,0-0.166,0c-0.074,0-0.137,0-0.186,0c-0.05,0-0.099,0-0.147,0   c-0.124,0.024-0.241,0.043-0.352,0.055c-0.111,0.013-0.229,0.031-0.352,0.056c-0.1,0.025-0.204,0.062-0.314,0.111   c-0.111,0.05-0.217,0.099-0.314,0.148c-0.148,0.099-0.272,0.216-0.37,0.352c-0.099,0.136-0.186,0.291-0.259,0.462   c-0.025,0.099-0.056,0.191-0.093,0.278s-0.068,0.167-0.093,0.24c0,0.099-0.013,0.191-0.037,0.278s-0.037,0.179-0.037,0.277   c-0.024,0.099-0.037,0.204-0.037,0.314s0,0.229,0,0.352c0,0.099,0,0.204,0,0.314s0,0.204,0,0.277v0.148l-0.073,3.922l-0.148,16.391   h-0.666l-2.257-2.886l-14.652-18.944l0.074,10.952c0,0.124,0,0.235,0,0.333c0,0.1,0,0.186,0,0.26c0,0.024,0,0.061,0,0.11   s0,0.087,0,0.11c0,0.051,0,0.094,0,0.131c0,0.036,0,0.08,0,0.129c0,0.246,0,0.494,0,0.74s0.013,0.48,0.037,0.703   c0,0.246,0.006,0.493,0.019,0.74c0.012,0.246,0.019,0.493,0.019,0.739c0,0.469,0.019,0.943,0.056,1.425   c0.037,0.48,0.079,0.969,0.129,1.461c0.05,0.494,0.148,0.9,0.296,1.221c0.148,0.321,0.333,0.543,0.556,0.666   c0.222,0.125,0.499,0.217,0.832,0.278s0.733,0.093,1.203,0.093v1.146c-0.173,0-0.346,0-0.519,0s-0.346,0-0.518,0   c-0.173,0-0.346-0.006-0.519-0.019s-0.346-0.03-0.518-0.056c-0.173,0-0.352,0-0.537,0c-0.185,0-0.364,0-0.536,0   c-0.099,0-0.191,0-0.277,0c-0.087,0-0.167-0.012-0.24-0.037c-0.1,0-0.191,0-0.278,0c-0.086,0-0.166,0-0.24,0s-0.154,0-0.24,0   c-0.087,0-0.167,0-0.24,0c-0.1,0.025-0.186,0.037-0.26,0.037c-0.073,0-0.147,0-0.222,0s-0.147,0-0.222,0s-0.148,0-0.223,0   c-0.073,0.025-0.147,0.037-0.222,0.037s-0.147,0-0.222,0c-0.05,0-0.093,0-0.13,0s-0.08,0-0.129,0   c-0.025,0.025-0.056,0.037-0.093,0.037s-0.08,0-0.13,0c-0.024,0-0.062,0-0.11,0c-0.05,0-0.087,0-0.111,0c-0.05,0-0.093,0-0.13,0   s-0.08,0-0.129,0c-0.025,0-0.062,0-0.111,0c-0.05,0-0.087,0-0.111,0c-0.05,0-0.092,0-0.129,0s-0.081,0-0.13,0   c-0.074,0-0.147,0-0.222,0s-0.148,0-0.222,0v-1.221c0.715,0.049,1.276-0.012,1.683-0.186c0.407-0.172,0.672-0.419,0.796-0.74   c0.123-0.345,0.216-0.745,0.277-1.202c0.062-0.456,0.104-0.968,0.13-1.535c0-0.024,0-0.05,0-0.074s0-0.043,0-0.056   c0-0.012,0-0.03,0-0.055l0.074-2.701l0.147-11.174V51.18c0-0.641-0.056-1.178-0.166-1.609c-0.111-0.431-0.266-0.733-0.463-0.906   c-0.222-0.172-0.536-0.315-0.943-0.426s-0.919-0.191-1.535-0.24v-1.332C236.172,46.716,236.301,46.753,236.436,46.777z"/>
	<path class="st0" d="M283.371,45.963c0.123,0.494,0.253,0.962,0.389,1.406c0.135,0.444,0.265,0.888,0.389,1.332   c0.123,0.444,0.259,0.888,0.406,1.332c0.148,0.444,0.296,0.876,0.444,1.295l3.996,11.84c0.024,0.099,0.049,0.191,0.074,0.277   c0.024,0.087,0.049,0.167,0.073,0.241c0,0.073,0.013,0.147,0.037,0.221c0.024,0.074,0.05,0.148,0.074,0.223   c0.049,0.148,0.099,0.296,0.148,0.443c0.049,0.148,0.098,0.285,0.147,0.408c0.099,0.295,0.204,0.592,0.314,0.887   c0.111,0.297,0.216,0.593,0.314,0.889c0.123,0.296,0.241,0.586,0.352,0.869c0.111,0.284,0.228,0.562,0.352,0.833   c0.148,0.321,0.314,0.586,0.5,0.796c0.185,0.209,0.4,0.363,0.647,0.462c0.246,0.099,0.512,0.185,0.795,0.259   s0.586,0.137,0.907,0.186v0.037h0.036c0.024,0,0.05,0,0.074,0v1.184c-0.173,0-0.352,0-0.536,0c-0.186,0-0.364,0-0.537,0   c-0.197,0-0.382-0.006-0.555-0.019s-0.357-0.019-0.555-0.019c-0.37-0.024-0.734-0.043-1.092-0.055   c-0.357-0.013-0.709-0.02-1.055-0.02c-0.147,0-0.29,0-0.425,0c-0.137,0-0.266,0-0.389,0c-0.148,0.025-0.29,0.037-0.426,0.037   s-0.266,0-0.389,0c-0.247,0.025-0.499,0.043-0.758,0.056c-0.26,0.013-0.524,0.019-0.796,0.019c-0.099,0-0.198,0-0.296,0   c-0.099,0-0.186,0-0.259,0c-0.1,0-0.191,0-0.278,0c-0.086,0-0.166,0-0.24,0v-1.258c0,0.049,0.006,0.074,0.019,0.074   s0.031,0,0.056,0s0.049,0,0.074,0c0.024,0,0.049,0,0.074,0c0.023,0,0.049,0,0.073,0s0.05-0.013,0.074-0.037   c0.024,0,0.056,0,0.093,0s0.067,0,0.093,0c0.023,0,0.049,0,0.073,0s0.062-0.012,0.111-0.037c0.024,0,0.056,0,0.093,0   s0.067,0,0.092,0c0.173-0.024,0.333-0.062,0.481-0.111c0.147-0.049,0.296-0.111,0.444-0.186c0.147-0.073,0.259-0.178,0.333-0.314   c0.073-0.135,0.11-0.289,0.11-0.462c0-0.024,0-0.05,0-0.073c0-0.025,0-0.05,0-0.074c-0.024-0.025-0.037-0.05-0.037-0.074   s0-0.049,0-0.074c0-0.024,0-0.049,0-0.074c0-0.023,0-0.049,0-0.074c-0.024-0.023-0.037-0.055-0.037-0.092s0-0.068,0-0.093   c-0.024-0.074-0.043-0.16-0.055-0.259c-0.013-0.099-0.044-0.197-0.093-0.297c-0.025-0.098-0.05-0.189-0.074-0.277   c-0.024-0.086-0.05-0.178-0.074-0.277c-0.024-0.049-0.05-0.104-0.073-0.166c-0.025-0.062-0.05-0.117-0.074-0.166   c-0.025-0.05-0.044-0.105-0.056-0.167c-0.013-0.062-0.019-0.117-0.019-0.167l-1.628-5.143h-7.733l-1.332,3.736   c-0.024,0.125-0.05,0.223-0.073,0.297c-0.025,0.074-0.05,0.147-0.074,0.222c-0.025,0.024-0.044,0.056-0.056,0.093   c-0.013,0.037-0.019,0.068-0.019,0.092c-0.024,0.051-0.043,0.088-0.056,0.111c-0.013,0.025-0.019,0.062-0.019,0.111   c-0.099,0.246-0.185,0.487-0.259,0.721c-0.074,0.235-0.147,0.476-0.222,0.723c-0.074,0.246-0.13,0.486-0.167,0.721   s-0.056,0.463-0.056,0.685c0,0.173,0.031,0.327,0.093,0.463s0.167,0.24,0.314,0.314c0.148,0.073,0.302,0.136,0.463,0.185   c0.16,0.05,0.326,0.1,0.499,0.148c0.05,0,0.086,0,0.111,0c0.024,0,0.062,0,0.111,0c0.023,0.025,0.055,0.037,0.092,0.037   s0.068,0,0.093,0s0.049,0,0.074,0c0.024,0,0.062,0,0.11,0c0.024,0.024,0.056,0.037,0.093,0.037s0.067,0,0.093,0   c0.024,0,0.049,0,0.074,0c0.024,0,0.049,0,0.073,0v1.184c-0.173,0-0.339,0-0.499,0c-0.161,0-0.314,0-0.463,0   c-0.173,0-0.339-0.006-0.499-0.019c-0.161-0.013-0.327-0.019-0.5-0.019c-0.32-0.024-0.642-0.043-0.962-0.055   c-0.32-0.013-0.642-0.02-0.962-0.02s-0.635,0.007-0.943,0.02c-0.309,0.012-0.61,0.03-0.906,0.055   c-0.296,0.025-0.592,0.037-0.888,0.037c-0.297,0-0.58,0-0.852,0l-0.074-1.258c0.05,0.025,0.087,0.049,0.111,0.074   c0.024,0,0.049,0,0.074,0c0.024,0,0.043,0,0.056,0c0.012,0,0.03-0.013,0.055-0.037c0.024,0,0.043,0,0.056,0s0.031,0,0.056,0   c0.049,0,0.099,0,0.148,0c0.049,0,0.11-0.012,0.185-0.037c0.049,0,0.099-0.006,0.148-0.019c0.049-0.013,0.098-0.019,0.147-0.019   c0.099-0.024,0.197-0.056,0.296-0.093c0.099-0.036,0.197-0.067,0.296-0.093c0.099-0.049,0.197-0.11,0.297-0.185   c0.098-0.073,0.196-0.173,0.296-0.296c0.098-0.123,0.203-0.26,0.314-0.407c0.11-0.147,0.215-0.308,0.314-0.481   c0.123-0.196,0.24-0.4,0.352-0.609c0.11-0.21,0.215-0.438,0.314-0.686c0.049-0.123,0.098-0.246,0.147-0.369s0.111-0.246,0.186-0.37   c0.049-0.124,0.098-0.247,0.147-0.37s0.099-0.246,0.148-0.37c0.147-0.394,0.296-0.776,0.443-1.147   c0.148-0.369,0.284-0.727,0.407-1.072s0.234-0.653,0.333-0.926c0.099-0.271,0.186-0.492,0.259-0.666l2.775-7.437   c0.123-0.271,0.24-0.561,0.352-0.87c0.111-0.308,0.228-0.623,0.352-0.943c0.123-0.32,0.246-0.641,0.37-0.962   c0.123-0.32,0.246-0.641,0.37-0.962c0.123-0.296,0.24-0.604,0.352-0.925c0.11-0.32,0.228-0.641,0.352-0.962   c0.049-0.148,0.104-0.302,0.166-0.462c0.062-0.16,0.13-0.327,0.203-0.5c0.05-0.148,0.105-0.302,0.167-0.462   c0.062-0.16,0.116-0.314,0.166-0.462v-0.074L283.371,45.963z M281.743,50.255l-3.479,9.509h6.513L281.743,50.255z"/>
	<path class="st0" d="M302.629,46.759c0.062,0.013,0.129,0.019,0.203,0.019c0.05,0.025,0.104,0.037,0.167,0.037   c0.061,0,0.116,0,0.166,0c0.123,0.025,0.246,0.037,0.37,0.037c0.123,0,0.246,0,0.37,0c0.123,0.024,0.24,0.037,0.352,0.037   s0.216,0,0.314,0c0.123,0,0.246,0,0.37,0c0.123,0,0.246,0,0.37,0c0.123,0,0.252,0,0.389,0c0.135,0,0.265,0,0.388,0s0.253,0,0.389,0   s0.277-0.012,0.426-0.037c0.123,0,0.246,0,0.37,0c0.123,0,0.259-0.012,0.407-0.037c0.123,0,0.252-0.006,0.388-0.019   c0.136-0.012,0.265-0.031,0.389-0.056c0.271,0.642,0.542,1.276,0.814,1.906c0.271,0.629,0.555,1.264,0.851,1.905   c0.271,0.617,0.555,1.24,0.852,1.869c0.296,0.629,0.592,1.264,0.888,1.905l5.698,11.729l5.66-11.803   c0.099-0.172,0.197-0.352,0.297-0.537c0.098-0.185,0.196-0.376,0.296-0.574c0.098-0.197,0.197-0.407,0.296-0.629   c0.098-0.222,0.197-0.444,0.296-0.666c0.049-0.049,0.086-0.104,0.111-0.167c0.023-0.061,0.061-0.129,0.11-0.203   c0.024-0.049,0.056-0.111,0.093-0.185c0.037-0.074,0.067-0.148,0.093-0.222c0.049-0.123,0.104-0.252,0.166-0.389   c0.062-0.135,0.13-0.277,0.204-0.425c0.123-0.296,0.252-0.592,0.388-0.888s0.253-0.592,0.352-0.888   c0.123-0.296,0.234-0.592,0.333-0.888s0.197-0.579,0.296-0.851c0.123,0.025,0.253,0.043,0.389,0.056   c0.136,0.013,0.277,0.019,0.426,0.019c0.123,0.025,0.253,0.037,0.389,0.037c0.135,0,0.265,0,0.389,0   c0.271,0.024,0.536,0.037,0.795,0.037s0.512,0,0.759,0c0.246,0,0.486,0,0.722,0c0.233,0,0.475-0.012,0.722-0.037   c0.246,0,0.486-0.012,0.721-0.037c0.234-0.024,0.475-0.049,0.722-0.074v1.147h-0.777c-0.469,0.05-0.882,0.118-1.239,0.204   c-0.357,0.087-0.635,0.204-0.832,0.352c-0.198,0.148-0.346,0.383-0.444,0.703c-0.099,0.321-0.147,0.728-0.147,1.221   c0,0.074,0,0.148,0,0.222c0,0.074,0,0.148,0,0.222c0,0.074,0,0.148,0,0.222c0,0.074,0.012,0.148,0.036,0.222l0.37,13.135   l0.037,2.183c0,0.74,0.037,1.346,0.111,1.813c0.074,0.469,0.185,0.813,0.333,1.036c0.123,0.223,0.4,0.395,0.832,0.518   c0.432,0.124,1.005,0.198,1.721,0.223v1.221c-0.395,0-0.783,0-1.165,0c-0.383,0-0.759-0.012-1.129-0.037   c-0.173,0-0.357-0.006-0.555-0.019c-0.198-0.013-0.383-0.019-0.556-0.019c-0.197-0.023-0.388-0.037-0.573-0.037   c-0.185,0-0.376,0-0.573,0c-0.395,0-0.783,0.007-1.166,0.02c-0.382,0.012-0.758,0.03-1.128,0.055c-0.173,0-0.358,0.006-0.555,0.019   c-0.198,0.013-0.383,0.019-0.556,0.019c-0.197,0-0.389,0-0.573,0s-0.376,0-0.573,0v-1.295c0.592,0.025,1.091-0.019,1.498-0.129   c0.407-0.111,0.709-0.266,0.906-0.463s0.352-0.487,0.463-0.869c0.111-0.383,0.167-0.87,0.167-1.462v-1.406l-0.148-14.319   l-7.252,15.318c-0.025,0.123-0.056,0.223-0.093,0.296c-0.037,0.074-0.08,0.147-0.129,0.222c-0.025,0.025-0.044,0.057-0.056,0.093   c-0.013,0.037-0.019,0.081-0.019,0.13c-0.025,0.024-0.044,0.055-0.056,0.092c-0.013,0.037-0.031,0.068-0.056,0.093   c-0.147,0.296-0.29,0.593-0.426,0.888c-0.136,0.297-0.265,0.592-0.388,0.889c-0.124,0.296-0.241,0.592-0.352,0.888   c-0.111,0.296-0.229,0.593-0.352,0.888l-0.592-0.074l-0.297-0.555l-8.953-18.944l-0.186,12.099   c-0.024,0.247-0.037,0.476-0.037,0.685c0,0.21,0,0.414,0,0.61c0,0.222,0,0.438,0,0.647c0,0.21,0,0.414,0,0.611   c0,0.542,0.031,1.041,0.093,1.498s0.153,0.869,0.277,1.239c0.123,0.37,0.382,0.647,0.777,0.833   c0.394,0.185,0.925,0.277,1.591,0.277l0.296-0.074v1.295c-0.099,0-0.191,0-0.277,0c-0.087,0-0.167,0-0.24,0   c-0.025,0-0.062,0-0.111,0c-0.05,0-0.087,0-0.111,0c-0.05,0-0.092,0-0.129,0s-0.081,0-0.13,0c-0.124,0-0.247,0-0.37,0   c-0.124,0-0.247-0.012-0.37-0.037c-0.147,0-0.283-0.006-0.406-0.019c-0.124-0.013-0.247-0.019-0.37-0.019c-0.124,0-0.247,0-0.37,0   c-0.124,0-0.247-0.012-0.37-0.037c-0.148,0-0.284,0-0.407,0c-0.124,0-0.247,0-0.37,0c-0.32,0-0.635,0.007-0.943,0.02   c-0.309,0.012-0.61,0.03-0.906,0.055c-0.148,0-0.296,0.006-0.444,0.019c-0.147,0.013-0.296,0.019-0.443,0.019   c-0.174,0-0.333,0-0.481,0s-0.296,0-0.444,0v-1.295c0.024,0.05,0.05,0.074,0.074,0.074s0.049,0,0.074,0c0.024,0,0.043,0,0.056,0   c0.012,0,0.03-0.012,0.056-0.037c0.023,0,0.049,0,0.073,0c0.05,0,0.093,0,0.13,0s0.067,0,0.093,0c0.049,0,0.092,0,0.129,0   s0.067-0.012,0.093-0.037c0.123,0,0.253-0.019,0.389-0.056c0.135-0.037,0.265-0.067,0.389-0.093   c0.123-0.049,0.24-0.111,0.352-0.185c0.11-0.074,0.215-0.16,0.314-0.259c0.073-0.123,0.147-0.266,0.222-0.426   s0.123-0.326,0.147-0.5c0.05-0.197,0.093-0.394,0.13-0.592c0.037-0.197,0.067-0.395,0.093-0.592c0-0.074,0-0.142,0-0.203   s0.012-0.13,0.037-0.203c0-0.05,0-0.105,0-0.167s0-0.13,0-0.204s0-0.141,0-0.203c0-0.061,0.012-0.117,0.037-0.166   c0-0.074,0-0.143,0-0.204s0-0.116,0-0.167c0-0.023,0-0.049,0-0.073s0-0.05,0-0.074s0-0.042,0-0.056c0-0.012,0-0.03,0-0.055   c0-0.025,0-0.05,0-0.074l0.036-1.332l0.37-11.211c0-0.024,0-0.074,0-0.148c0-0.074,0-0.148,0-0.222c0-0.049,0-0.086,0-0.111   c0-0.024,0.013-0.061,0.037-0.111c0-0.024,0-0.056,0-0.093c0-0.037,0-0.067,0-0.092c0-0.049,0-0.092,0-0.129   s0.013-0.068,0.037-0.093c0-0.049,0-0.092,0-0.129s0-0.067,0-0.092c0-0.049,0-0.086,0-0.111c0-0.024,0-0.061,0-0.111   c0-0.024,0-0.056,0-0.092c0-0.037,0-0.068,0-0.093c0-0.049,0-0.086,0-0.111c0-0.024,0.013-0.062,0.037-0.111   c0-0.024,0-0.056,0-0.093s0-0.067,0-0.092c0-0.074,0-0.148,0-0.222s0-0.148,0-0.222c0-0.493-0.043-0.906-0.13-1.239   c-0.086-0.333-0.228-0.586-0.425-0.759c-0.173-0.197-0.42-0.338-0.74-0.425c-0.321-0.086-0.716-0.129-1.184-0.129l-0.926-0.074   v-1.221C302.512,46.716,302.566,46.747,302.629,46.759z"/>
	<path class="st0" d="M358.555,52.031v0.037c-0.025,0-0.037-0.012-0.037-0.037c0-0.024,0-0.049,0-0.074   c-0.025-0.049-0.043-0.105-0.056-0.167s-0.019-0.13-0.019-0.204c0-0.049-0.006-0.086-0.019-0.111s-0.019-0.062-0.019-0.111   c-0.024-0.024-0.037-0.055-0.037-0.092s0-0.068,0-0.093c-0.024-0.197-0.067-0.375-0.129-0.536c-0.062-0.16-0.13-0.327-0.204-0.5   c-0.073-0.172-0.166-0.333-0.277-0.481c-0.11-0.148-0.229-0.271-0.352-0.37c-0.173-0.148-0.376-0.278-0.61-0.389   s-0.487-0.204-0.759-0.277c-0.123-0.024-0.253-0.049-0.388-0.074c-0.137-0.024-0.266-0.049-0.389-0.074   c-0.148-0.024-0.29-0.043-0.426-0.056c-0.136-0.012-0.266-0.031-0.389-0.056c-0.074,0-0.147,0-0.222,0s-0.136-0.012-0.186-0.037   c-0.073,0-0.142,0-0.203,0s-0.13,0-0.203,0c-0.148,0-0.284,0-0.407,0c-0.124,0-0.247,0-0.37,0c-0.099,0-0.203,0-0.314,0   s-0.229,0-0.352,0c-0.099,0-0.197,0-0.296,0s-0.197,0-0.296,0c-0.099,0.024-0.204,0.037-0.314,0.037c-0.111,0-0.229,0-0.352,0   c-0.05,0-0.099,0-0.148,0s-0.099,0-0.147,0c-0.074,0-0.136,0-0.186,0s-0.099,0-0.147,0c-0.247,0-0.463,0.013-0.647,0.037   c-0.186,0.025-0.314,0.062-0.389,0.111c-0.099,0.05-0.167,0.148-0.203,0.296c-0.037,0.148-0.056,0.358-0.056,0.629v8.509h3.885   c0.641,0.051,1.202,0.037,1.684-0.036c0.48-0.074,0.882-0.185,1.202-0.333c0.296-0.148,0.524-0.438,0.685-0.87   c0.16-0.431,0.24-0.993,0.24-1.684l1.295-0.074c-0.024,0.346-0.043,0.679-0.055,0.999c-0.013,0.321-0.019,0.629-0.019,0.925   c0,0.321,0,0.635,0,0.943c0,0.309,0,0.623,0,0.943c0,0.074,0,0.148,0,0.223s0,0.147,0,0.222c0,0.099,0,0.185,0,0.259   s0,0.148,0,0.223c0,0.073,0,0.147,0,0.221c0,0.074,0.012,0.148,0.037,0.223c0,0.074,0,0.148,0,0.223c0,0.073,0,0.147,0,0.221   c0,0.074,0,0.148,0,0.223s0.012,0.148,0.036,0.223c0,0.098,0.006,0.185,0.019,0.258c0.013,0.074,0.019,0.148,0.019,0.223   c0,0.148,0.006,0.296,0.019,0.443c0.013,0.148,0.031,0.297,0.056,0.444l-1.406-0.073c-0.024-0.691-0.117-1.246-0.277-1.666   c-0.16-0.418-0.389-0.678-0.685-0.776c-0.296-0.124-0.69-0.216-1.184-0.278c-0.494-0.061-1.086-0.092-1.776-0.092l-3.773-0.074   v5.069v1.405c0,0.1,0,0.186,0,0.26s0,0.136,0,0.185c0,0.074,0,0.143,0,0.204s0,0.117,0,0.166c0,0.247,0.006,0.48,0.019,0.703   c0.012,0.223,0.03,0.443,0.055,0.666s0.056,0.406,0.093,0.555s0.093,0.271,0.167,0.37c0.073,0.124,0.16,0.229,0.259,0.314   c0.099,0.087,0.209,0.155,0.333,0.204c0.123,0.049,0.253,0.092,0.389,0.129c0.135,0.037,0.277,0.068,0.425,0.093   c0.223,0.024,0.444,0.056,0.666,0.093c0.223,0.037,0.444,0.055,0.666,0.055c0.223,0,0.444,0,0.666,0c0.223,0,0.444,0,0.666,0   l1.073-0.074c0.938,0.051,1.739,0.025,2.405-0.073s1.221-0.259,1.665-0.481c0.443-0.222,0.845-0.622,1.202-1.202   c0.357-0.579,0.672-1.338,0.943-2.275l1.259,0.259l-1.259,5.328c-0.518,0-1.03,0-1.535,0c-0.506,0-1.006-0.012-1.499-0.037   c-0.246,0-0.493,0-0.739,0c-0.247,0-0.494-0.012-0.74-0.037c-0.247,0-0.494,0-0.74,0c-0.247,0-0.493,0-0.74,0   c-0.123,0-0.246,0-0.369,0c-0.124,0-0.247-0.012-0.37-0.037c-0.148,0-0.284,0-0.407,0c-0.124,0-0.247,0-0.37,0   c-0.247,0-0.494,0-0.74,0s-0.493,0-0.739,0l-4.219-0.037c-0.395,0.051-0.783,0.087-1.165,0.111   c-0.383,0.025-0.759,0.037-1.129,0.037c-0.173,0-0.357,0-0.555,0c-0.198,0-0.395,0-0.592,0c-0.173,0-0.358,0-0.556,0   s-0.395,0-0.592,0v-1.295c0.469,0.05,0.882,0.043,1.239-0.019s0.66-0.153,0.907-0.277c0.246-0.124,0.431-0.352,0.555-0.685   c0.123-0.333,0.197-0.759,0.222-1.276l0.037-2.517v-12.58l-0.037-2.405c-0.024-0.493-0.099-0.906-0.222-1.239   c-0.124-0.333-0.309-0.561-0.555-0.685c-0.247-0.123-0.55-0.216-0.907-0.277s-0.771-0.093-1.239-0.093v-1.369   c0.346,0.049,0.69,0.092,1.036,0.129c0.345,0.037,0.69,0.056,1.036,0.056c0.345,0.024,0.69,0.037,1.036,0.037   c0.345,0,0.69,0,1.036,0c0.345,0.025,0.685,0.037,1.018,0.037s0.671,0,1.017,0s0.69,0,1.036,0s0.69,0,1.036,0   c0.173,0,0.346,0,0.519,0c0.172,0,0.345,0,0.518,0c0.148,0,0.309,0,0.481,0c0.172,0,0.345,0,0.518,0c0.172,0,0.345,0,0.518,0   s0.346-0.012,0.519-0.037c0.172,0,0.345,0,0.518,0s0.346,0,0.519,0c0.345,0,0.685-0.006,1.018-0.019   c0.333-0.012,0.659-0.03,0.98-0.055c0.345,0,0.69-0.006,1.036-0.019c0.345-0.012,0.689-0.031,1.035-0.056l0.556,4.995   L358.555,52.031z"/>
	<path class="st0" d="M383.899,51.773c-0.124-0.493-0.309-0.98-0.555-1.461c-0.247-0.481-0.543-0.919-0.889-1.313   c-0.346-0.419-0.753-0.74-1.221-0.962c-0.469-0.222-0.999-0.345-1.591-0.37c-0.617,0-1.203,0.092-1.758,0.277   s-1.079,0.462-1.572,0.833c-0.494,0.37-0.864,0.808-1.11,1.313c-0.247,0.506-0.37,1.091-0.37,1.757   c0,0.592,0.104,1.135,0.314,1.628c0.21,0.494,0.512,0.925,0.907,1.295c0.419,0.395,0.862,0.771,1.332,1.128   c0.468,0.358,0.974,0.709,1.517,1.054c0.099,0.074,0.197,0.143,0.296,0.204c0.099,0.062,0.197,0.117,0.296,0.167   c0.099,0.074,0.197,0.142,0.296,0.204c0.099,0.062,0.197,0.117,0.296,0.167c0.642,0.395,1.265,0.833,1.869,1.313   c0.604,0.481,1.178,0.994,1.721,1.536c0.542,0.542,0.949,1.172,1.221,1.887c0.271,0.716,0.407,1.542,0.407,2.479   c0,1.109-0.204,2.09-0.611,2.941c-0.406,0.851-1.017,1.572-1.831,2.164s-1.684,1.03-2.608,1.313s-1.894,0.426-2.904,0.426   c-0.494,0-0.98-0.031-1.462-0.093c-0.48-0.062-0.968-0.154-1.461-0.277c-0.47-0.074-0.938-0.191-1.406-0.352   c-0.469-0.16-0.925-0.339-1.369-0.537c-0.024-0.196-0.05-0.4-0.074-0.609c-0.024-0.21-0.05-0.426-0.074-0.648   c-0.024-0.197-0.05-0.4-0.073-0.609c-0.025-0.21-0.062-0.414-0.111-0.611c-0.024-0.197-0.056-0.4-0.093-0.61   s-0.068-0.425-0.092-0.647c-0.05-0.197-0.087-0.4-0.111-0.61c-0.025-0.21-0.062-0.413-0.111-0.61l1.406-0.334   c0.147,0.717,0.352,1.376,0.61,1.98s0.586,1.165,0.98,1.684c0.37,0.518,0.852,0.906,1.443,1.165s1.27,0.413,2.035,0.462   c0.641,0,1.258-0.104,1.85-0.314c0.592-0.209,1.159-0.512,1.702-0.906c0.518-0.419,0.912-0.906,1.184-1.461   s0.407-1.178,0.407-1.869c0-0.666-0.111-1.27-0.333-1.812c-0.222-0.543-0.555-1.012-0.999-1.406   c-0.444-0.419-0.925-0.826-1.443-1.221c-0.518-0.395-1.061-0.777-1.628-1.146c-0.073-0.05-0.142-0.094-0.203-0.13   c-0.062-0.037-0.117-0.067-0.167-0.093c-0.024-0.024-0.055-0.049-0.092-0.074c-0.037-0.023-0.068-0.049-0.093-0.074   c-0.05,0-0.087-0.012-0.111-0.037c-0.024-0.023-0.05-0.049-0.073-0.073c-0.643-0.419-1.259-0.856-1.851-1.313   s-1.159-0.944-1.702-1.462c-0.543-0.518-0.943-1.128-1.202-1.831c-0.259-0.703-0.389-1.499-0.389-2.387   c0-1.085,0.197-2.035,0.592-2.849s0.986-1.492,1.776-2.035c0.789-0.542,1.634-0.95,2.534-1.221c0.9-0.271,1.844-0.407,2.831-0.407   c0.37,0,0.74,0.019,1.109,0.056c0.37,0.037,0.74,0.093,1.11,0.167c0.197,0.025,0.382,0.062,0.555,0.111   c0.173,0.05,0.357,0.087,0.556,0.111c0.172,0.05,0.352,0.099,0.536,0.148c0.185,0.05,0.363,0.099,0.536,0.148   c0.05,0.395,0.093,0.777,0.13,1.147s0.093,0.74,0.167,1.11c0.073,0.37,0.147,0.74,0.222,1.11c0.074,0.37,0.16,0.74,0.259,1.11   v-0.074L383.899,51.773z"/>
</g>
<g>
	<path class="st0" d="M70.517,83.516c0,0.24,0,0.468,0,0.685c0,0.216,0.006,0.432,0.018,0.647c0.012,0.216,0.024,0.433,0.036,0.648   c0.012,0.216,0.024,0.426,0.036,0.63l0.396,5.76c0,0.097,0,0.18,0,0.252s0,0.145,0,0.216c0,0.072,0.002,0.145,0.009,0.217   c0.006,0.071,0.015,0.138,0.027,0.197c0,0.072,0.003,0.145,0.009,0.216c0.006,0.072,0.015,0.145,0.027,0.217   c0.012,0.071,0.021,0.144,0.027,0.216s0.009,0.144,0.009,0.216c0.024,0.144,0.045,0.285,0.063,0.423   c0.018,0.139,0.039,0.273,0.063,0.405c0.024,0.156,0.069,0.285,0.135,0.387c0.066,0.103,0.153,0.178,0.261,0.226   c0.096,0.048,0.21,0.09,0.342,0.126c0.132,0.035,0.276,0.065,0.432,0.09l-0.018,0.018h0.018c0.012,0,0.024,0,0.036,0L72.3,95.882   c-0.084,0-0.171,0-0.261,0c-0.09,0-0.177,0-0.261,0c-0.096,0-0.187-0.003-0.27-0.009c-0.084-0.006-0.174-0.009-0.27-0.009   c-0.12-0.013-0.237-0.019-0.351-0.019c-0.114,0-0.225-0.006-0.333-0.018c-0.06,0-0.117,0-0.171,0c-0.054,0-0.111,0-0.171,0   c-0.048,0-0.093,0-0.135,0s-0.087,0-0.135,0c-0.024,0-0.048,0-0.072,0s-0.048,0-0.072,0c-0.072,0.012-0.141,0.018-0.207,0.018   c-0.066,0-0.129,0-0.189,0c-0.12,0.013-0.243,0.021-0.369,0.027s-0.255,0.009-0.387,0.009c-0.048,0-0.096,0-0.144,0   c-0.048,0-0.09,0-0.126,0c-0.048,0-0.093,0-0.135,0s-0.081,0-0.117,0l0.162-0.612c-0.012,0.024-0.015,0.036-0.009,0.036   c0.006,0,0.015,0,0.027,0c0.012,0,0.024,0,0.036,0c0.012,0,0.024,0,0.036,0c0.012,0,0.024,0,0.036,0   c0.012,0,0.024-0.006,0.036-0.018c0.024,0,0.045,0,0.063,0s0.033,0,0.045,0c0.012,0,0.024,0,0.036,0   c0.012,0,0.03-0.006,0.054-0.019c0.012,0,0.027,0,0.045,0c0.018,0,0.033,0,0.045,0c0.083-0.012,0.165-0.029,0.243-0.054   c0.078-0.023,0.159-0.054,0.243-0.09s0.153-0.087,0.207-0.153c0.054-0.065,0.093-0.141,0.117-0.225c0-0.024,0-0.048,0-0.072   c0-0.023,0.006-0.048,0.018-0.072c0-0.023,0-0.048,0-0.071c0-0.024,0.006-0.055,0.018-0.091c0-0.012,0-0.023,0-0.035   c0-0.013,0-0.024,0-0.036c0-0.036,0.003-0.069,0.009-0.1c0.006-0.029,0.003-0.062-0.009-0.099c0-0.048,0-0.093,0-0.135   s0-0.087,0-0.136c-0.012-0.023-0.018-0.051-0.018-0.08c0-0.03,0-0.058,0-0.081c-0.012-0.024-0.018-0.052-0.018-0.081   c0-0.03,0.006-0.058,0.018-0.081l-0.126-2.502h-3.762l-1.134,1.817c-0.012,0.036-0.024,0.063-0.036,0.081   c-0.012,0.019-0.024,0.039-0.036,0.063c-0.012,0.012-0.024,0.026-0.036,0.045c-0.012,0.018-0.024,0.039-0.036,0.062   c-0.012,0.013-0.024,0.027-0.036,0.045c-0.012,0.019-0.018,0.033-0.018,0.045c-0.012,0.013-0.018,0.024-0.018,0.036   c-0.012,0.013-0.018,0.024-0.018,0.036c0,0.013-0.006,0.024-0.018,0.036c-0.048,0.072-0.096,0.147-0.144,0.225   c-0.048,0.079-0.096,0.159-0.144,0.243c-0.024,0.036-0.048,0.075-0.072,0.117s-0.048,0.081-0.072,0.117   c-0.061,0.12-0.117,0.237-0.171,0.351c-0.054,0.114-0.093,0.226-0.117,0.333c-0.024,0.084-0.03,0.159-0.018,0.226   c0.012,0.065,0.048,0.117,0.108,0.152c0.06,0.036,0.126,0.066,0.198,0.091c0.072,0.023,0.15,0.048,0.234,0.071   c0.024,0,0.042,0,0.054,0c0.012,0,0.03,0,0.054,0c0.012,0.013,0.027,0.019,0.045,0.019s0.033,0,0.045,0c0.012,0,0.021,0,0.027,0   c0.006,0,0.015,0,0.027,0h0.018c0.012,0.012,0.027,0.018,0.045,0.018s0.033,0,0.045,0c0.012,0,0.024,0,0.036,0   c0.012,0,0.024,0,0.036,0l-0.144,0.576c-0.084,0-0.165,0-0.243,0s-0.153,0-0.225,0c-0.084,0-0.165-0.003-0.243-0.009   c-0.079-0.006-0.159-0.009-0.243-0.009c-0.108-0.013-0.213-0.019-0.315-0.019c-0.102,0-0.201-0.006-0.297-0.018   c-0.048,0-0.099,0-0.153,0c-0.054,0-0.105,0-0.153,0c-0.048,0-0.099,0-0.153,0c-0.054,0-0.105,0-0.153,0   c-0.108,0.012-0.213,0.018-0.315,0.018s-0.201,0.006-0.297,0.019c-0.144,0.012-0.288,0.018-0.432,0.018s-0.282,0-0.414,0   l0.126-0.612c0.012,0.024,0.024,0.036,0.036,0.036c0.012,0,0.024,0,0.036,0c0.012,0,0.024,0,0.036,0   c0.012,0,0.024-0.006,0.036-0.018c0.024,0,0.042,0,0.054,0c0.024,0,0.048,0,0.072,0s0.054-0.006,0.09-0.019   c0.024,0,0.048-0.003,0.072-0.009c0.024-0.006,0.048-0.009,0.072-0.009c0.048-0.012,0.099-0.027,0.153-0.045   c0.054-0.019,0.105-0.033,0.153-0.045c0.06-0.024,0.117-0.055,0.171-0.09c0.054-0.036,0.117-0.084,0.189-0.145   c0.06-0.06,0.126-0.126,0.198-0.198c0.072-0.071,0.144-0.149,0.216-0.233c0.084-0.096,0.168-0.195,0.252-0.297   c0.084-0.103,0.168-0.213,0.252-0.333s0.165-0.24,0.243-0.36s0.159-0.24,0.243-0.36c0.132-0.191,0.255-0.378,0.369-0.558   c0.114-0.18,0.231-0.354,0.351-0.522c0.108-0.168,0.201-0.317,0.279-0.449c0.078-0.132,0.146-0.24,0.207-0.324l2.322-3.618   c0.096-0.132,0.192-0.272,0.288-0.423c0.096-0.15,0.192-0.303,0.288-0.459c0.096-0.156,0.195-0.312,0.297-0.468   c0.102-0.156,0.207-0.312,0.315-0.469c0.096-0.144,0.192-0.294,0.288-0.449c0.096-0.156,0.198-0.312,0.306-0.469   c0.048-0.071,0.096-0.146,0.144-0.225c0.047-0.078,0.096-0.159,0.144-0.243c0.048-0.072,0.096-0.146,0.144-0.225   s0.096-0.153,0.144-0.226l0.018-0.036L70.517,83.516z M69.15,85.604l-2.916,4.626h3.168L69.15,85.604z"/>
	<path class="st0" d="M88.59,90.104l-0.486,0.072v0.018h-0.018l0.018-0.018v-0.018c-0.012-0.168-0.039-0.324-0.081-0.469   c-0.042-0.144-0.099-0.281-0.171-0.414c-0.072-0.132-0.174-0.233-0.306-0.306c-0.132-0.072-0.288-0.107-0.468-0.107   c-0.156,0-0.306,0.023-0.45,0.071c-0.144,0.048-0.282,0.12-0.414,0.216c-0.132,0.085-0.24,0.189-0.324,0.315   s-0.15,0.268-0.198,0.423c-0.048,0.18-0.061,0.346-0.036,0.495c0.024,0.15,0.083,0.285,0.18,0.405s0.201,0.237,0.315,0.351   c0.114,0.114,0.243,0.226,0.387,0.333c0.024,0.013,0.045,0.027,0.063,0.045c0.018,0.019,0.039,0.039,0.063,0.063   c0.012,0.012,0.024,0.021,0.036,0.026c0.012,0.007,0.024,0.01,0.036,0.01c0,0.012,0.006,0.021,0.018,0.026   c0.012,0.007,0.024,0.016,0.036,0.027c0.168,0.12,0.324,0.252,0.468,0.396c0.144,0.145,0.276,0.301,0.396,0.469   c0.12,0.155,0.195,0.339,0.225,0.549c0.03,0.21,0.009,0.453-0.063,0.729c-0.096,0.336-0.243,0.64-0.441,0.909   c-0.198,0.271-0.447,0.507-0.747,0.711c-0.288,0.192-0.588,0.336-0.9,0.433c-0.312,0.096-0.63,0.144-0.954,0.144   c-0.024,0-0.048,0-0.072,0s-0.048,0-0.072,0c-0.024-0.012-0.048-0.018-0.072-0.018s-0.048,0-0.072,0c-0.024,0-0.048,0-0.072,0   s-0.042,0-0.054,0c-0.024-0.013-0.048-0.019-0.072-0.019s-0.048,0-0.072,0c-0.12-0.012-0.237-0.026-0.351-0.045   c-0.114-0.018-0.219-0.033-0.315-0.045c-0.108-0.023-0.213-0.054-0.315-0.09c-0.102-0.036-0.201-0.078-0.297-0.126l0.27-1.872   l0.504-0.09c-0.012,0.24-0.006,0.459,0.018,0.656c0.024,0.198,0.066,0.388,0.126,0.567s0.171,0.315,0.333,0.405   c0.162,0.09,0.375,0.135,0.639,0.135c0.18,0,0.357-0.027,0.531-0.081c0.174-0.054,0.339-0.135,0.495-0.243   c0.156-0.107,0.288-0.233,0.396-0.378c0.108-0.144,0.186-0.312,0.234-0.504c0.036-0.144,0.045-0.279,0.027-0.405   s-0.069-0.242-0.153-0.351c-0.036-0.06-0.079-0.114-0.126-0.162s-0.096-0.102-0.144-0.162c-0.048-0.048-0.096-0.099-0.144-0.152   c-0.048-0.055-0.102-0.105-0.162-0.153c-0.048-0.024-0.09-0.048-0.126-0.072c-0.036-0.023-0.066-0.048-0.09-0.072   c-0.036-0.023-0.072-0.051-0.108-0.081c-0.036-0.029-0.066-0.057-0.09-0.08c-0.156-0.133-0.306-0.273-0.45-0.424   c-0.144-0.149-0.276-0.303-0.396-0.459c-0.12-0.168-0.189-0.362-0.207-0.585c-0.018-0.222,0.009-0.465,0.081-0.729   c0.096-0.336,0.231-0.633,0.405-0.892c0.174-0.258,0.399-0.477,0.675-0.656c0.276-0.181,0.561-0.318,0.855-0.414   s0.603-0.145,0.927-0.145c0.024,0,0.045,0,0.063,0s0.033,0,0.045,0c0.024,0.013,0.045,0.019,0.063,0.019s0.033,0,0.045,0   c0.024,0,0.042,0,0.054,0c0.012,0,0.03,0,0.054,0c0.012,0,0.027,0,0.045,0c0.018,0,0.033,0,0.045,0   c0.096,0.012,0.195,0.03,0.297,0.054c0.102,0.024,0.201,0.048,0.297,0.072c0.048,0.012,0.096,0.026,0.144,0.045   c0.048,0.018,0.096,0.033,0.144,0.045c0.048,0.024,0.093,0.042,0.135,0.054c0.042,0.013,0.087,0.03,0.135,0.054v-0.035   L88.59,90.104z"/>
	<path class="st0" d="M104.267,90.104l-0.486,0.072v0.018h-0.018l0.018-0.018v-0.018c-0.012-0.168-0.039-0.324-0.081-0.469   c-0.042-0.144-0.099-0.281-0.171-0.414c-0.072-0.132-0.174-0.233-0.306-0.306c-0.132-0.072-0.288-0.107-0.468-0.107   c-0.156,0-0.306,0.023-0.45,0.071c-0.144,0.048-0.282,0.12-0.414,0.216c-0.132,0.085-0.24,0.189-0.324,0.315   s-0.15,0.268-0.198,0.423c-0.048,0.18-0.061,0.346-0.036,0.495c0.024,0.15,0.083,0.285,0.18,0.405s0.201,0.237,0.315,0.351   c0.114,0.114,0.243,0.226,0.387,0.333c0.024,0.013,0.045,0.027,0.063,0.045c0.018,0.019,0.039,0.039,0.063,0.063   c0.012,0.012,0.024,0.021,0.036,0.026c0.012,0.007,0.024,0.01,0.036,0.01c0,0.012,0.006,0.021,0.018,0.026   c0.012,0.007,0.024,0.016,0.036,0.027c0.168,0.12,0.324,0.252,0.468,0.396c0.144,0.145,0.276,0.301,0.396,0.469   c0.12,0.155,0.195,0.339,0.225,0.549c0.03,0.21,0.009,0.453-0.063,0.729c-0.096,0.336-0.243,0.64-0.441,0.909   c-0.198,0.271-0.447,0.507-0.747,0.711c-0.288,0.192-0.588,0.336-0.9,0.433c-0.312,0.096-0.63,0.144-0.954,0.144   c-0.024,0-0.048,0-0.072,0s-0.048,0-0.072,0c-0.024-0.012-0.048-0.018-0.072-0.018s-0.048,0-0.072,0c-0.024,0-0.048,0-0.072,0   s-0.042,0-0.054,0c-0.024-0.013-0.048-0.019-0.072-0.019s-0.048,0-0.072,0c-0.12-0.012-0.237-0.026-0.351-0.045   c-0.114-0.018-0.219-0.033-0.315-0.045c-0.108-0.023-0.213-0.054-0.315-0.09c-0.102-0.036-0.201-0.078-0.297-0.126l0.27-1.872   l0.504-0.09c-0.012,0.24-0.006,0.459,0.018,0.656c0.024,0.198,0.066,0.388,0.126,0.567s0.171,0.315,0.333,0.405   c0.162,0.09,0.375,0.135,0.639,0.135c0.18,0,0.357-0.027,0.531-0.081c0.174-0.054,0.339-0.135,0.495-0.243   c0.156-0.107,0.288-0.233,0.396-0.378c0.108-0.144,0.186-0.312,0.234-0.504c0.036-0.144,0.045-0.279,0.027-0.405   s-0.069-0.242-0.153-0.351c-0.036-0.06-0.079-0.114-0.126-0.162s-0.096-0.102-0.144-0.162c-0.048-0.048-0.096-0.099-0.144-0.152   c-0.048-0.055-0.102-0.105-0.162-0.153c-0.048-0.024-0.09-0.048-0.126-0.072c-0.036-0.023-0.066-0.048-0.09-0.072   c-0.036-0.023-0.072-0.051-0.108-0.081c-0.036-0.029-0.066-0.057-0.09-0.08c-0.156-0.133-0.306-0.273-0.45-0.424   c-0.144-0.149-0.276-0.303-0.396-0.459c-0.12-0.168-0.189-0.362-0.207-0.585c-0.018-0.222,0.009-0.465,0.081-0.729   c0.096-0.336,0.231-0.633,0.405-0.892c0.174-0.258,0.399-0.477,0.675-0.656c0.276-0.181,0.561-0.318,0.855-0.414   s0.603-0.145,0.927-0.145c0.024,0,0.045,0,0.063,0s0.033,0,0.045,0c0.024,0.013,0.045,0.019,0.063,0.019s0.033,0,0.045,0   c0.024,0,0.042,0,0.054,0c0.012,0,0.03,0,0.054,0c0.012,0,0.027,0,0.045,0c0.018,0,0.033,0,0.045,0   c0.096,0.012,0.195,0.03,0.297,0.054c0.102,0.024,0.201,0.048,0.297,0.072c0.048,0.012,0.096,0.026,0.144,0.045   c0.048,0.018,0.096,0.033,0.144,0.045c0.048,0.024,0.093,0.042,0.135,0.054c0.042,0.013,0.087,0.03,0.135,0.054v-0.035   L104.267,90.104z"/>
	<path class="st0" d="M122.06,93.696c-0.318,0.462-0.723,0.872-1.215,1.232c-0.492,0.372-0.993,0.646-1.503,0.819   c-0.51,0.174-1.029,0.261-1.557,0.261c-0.576,0-1.071-0.09-1.485-0.27c-0.414-0.181-0.753-0.456-1.017-0.828   c-0.264-0.372-0.423-0.792-0.477-1.261c-0.054-0.468-0.003-0.983,0.153-1.548c0.156-0.563,0.393-1.076,0.711-1.539   c0.318-0.462,0.729-0.879,1.233-1.251c0.492-0.371,0.996-0.65,1.512-0.837c0.516-0.186,1.05-0.278,1.602-0.278   c0.564,0,1.05,0.099,1.458,0.297c0.408,0.197,0.738,0.488,0.99,0.873c0.24,0.396,0.387,0.827,0.441,1.296   c0.054,0.468,0.009,0.978-0.135,1.529v-0.035C122.616,92.72,122.378,93.234,122.06,93.696z M121.368,92.157   c0.012-0.061,0.024-0.126,0.036-0.198c0-0.036,0.002-0.072,0.009-0.108c0.006-0.036,0.015-0.071,0.027-0.107   c0-0.024,0.003-0.055,0.009-0.091c0.006-0.035,0.009-0.071,0.009-0.107c0.024-0.336,0.012-0.657-0.036-0.963   c-0.048-0.307-0.138-0.597-0.27-0.873c-0.132-0.276-0.324-0.486-0.576-0.63c-0.252-0.145-0.558-0.216-0.918-0.216   c-0.384,0-0.744,0.074-1.08,0.225s-0.642,0.369-0.918,0.657c-0.288,0.3-0.528,0.608-0.72,0.927s-0.336,0.651-0.432,0.999   c0,0.012,0,0.024,0,0.036v0.018c-0.024,0.084-0.048,0.171-0.072,0.261c-0.024,0.091-0.042,0.184-0.054,0.279   c-0.012,0.084-0.024,0.171-0.036,0.261c-0.012,0.091-0.018,0.184-0.018,0.279c-0.024,0.324-0.012,0.633,0.036,0.927   c0.048,0.295,0.132,0.579,0.252,0.855c0.12,0.264,0.3,0.465,0.54,0.603c0.24,0.139,0.546,0.207,0.918,0.207   c0.42,0,0.804-0.077,1.152-0.233s0.66-0.39,0.936-0.702c0.276-0.312,0.507-0.639,0.693-0.981c0.186-0.342,0.333-0.698,0.441-1.07   l0.018-0.019c0-0.012,0-0.023,0-0.036l0.018-0.036C121.343,92.271,121.355,92.216,121.368,92.157z"/>
	<path class="st0" d="M139.349,94.604c-0.228,0.229-0.471,0.427-0.729,0.595c-0.258,0.168-0.531,0.317-0.819,0.449   c-0.276,0.12-0.552,0.211-0.828,0.271c-0.276,0.06-0.552,0.09-0.828,0.09c-0.552,0-1.02-0.093-1.404-0.279   c-0.384-0.186-0.666-0.465-0.846-0.837c-0.192-0.384-0.303-0.804-0.333-1.26s0.027-0.942,0.171-1.458   c0.144-0.54,0.369-1.044,0.675-1.512c0.306-0.469,0.687-0.888,1.143-1.261c0.456-0.384,0.938-0.668,1.449-0.854   c0.51-0.186,1.041-0.279,1.593-0.279c0.06,0,0.129,0.003,0.207,0.009c0.078,0.007,0.159,0.021,0.243,0.046   c0.096,0.012,0.189,0.029,0.279,0.054c0.09,0.024,0.177,0.048,0.261,0.072c0.156,0.048,0.3,0.104,0.432,0.171   c0.132,0.065,0.258,0.141,0.378,0.225c0.108,0.084,0.183,0.174,0.225,0.271c0.042,0.096,0.051,0.197,0.027,0.306   c-0.024,0.048-0.057,0.099-0.099,0.153c-0.042,0.054-0.099,0.11-0.171,0.171c-0.024,0.012-0.045,0.026-0.063,0.045   c-0.018,0.018-0.039,0.033-0.063,0.045c-0.048,0.036-0.093,0.062-0.135,0.081c-0.042,0.018-0.081,0.033-0.117,0.045   c-0.012,0-0.03,0.006-0.054,0.018c-0.012,0.013-0.024,0.019-0.036,0.019c-0.012,0-0.024,0-0.036,0c-0.012,0-0.024,0-0.036,0   c-0.012,0-0.021,0-0.027,0c-0.006,0-0.015,0-0.027,0v-0.036c-0.06,0.024-0.111,0.021-0.153-0.009   c-0.042-0.03-0.081-0.075-0.117-0.136c-0.036-0.06-0.072-0.122-0.108-0.188c-0.036-0.066-0.078-0.135-0.126-0.207   c-0.048-0.072-0.108-0.141-0.18-0.207c-0.072-0.065-0.144-0.129-0.216-0.189c-0.084-0.06-0.171-0.104-0.261-0.135   c-0.09-0.029-0.201-0.045-0.333-0.045c-0.336,0-0.657,0.066-0.963,0.198s-0.597,0.33-0.873,0.594   c-0.276,0.265-0.513,0.54-0.711,0.828c-0.198,0.288-0.345,0.588-0.441,0.9c-0.012,0.012-0.024,0.029-0.036,0.054v0.018v0.019   c-0.012,0.012-0.018,0.023-0.018,0.036c0,0.012,0,0.021,0,0.026c0,0.007,0,0.016,0,0.027c-0.012,0.012-0.018,0.021-0.018,0.027   c0,0.006,0,0.015,0,0.026c-0.012,0.061-0.027,0.12-0.045,0.181c-0.018,0.06-0.033,0.119-0.045,0.18   c-0.012,0.06-0.024,0.123-0.036,0.188c-0.012,0.066-0.018,0.13-0.018,0.189c-0.048,0.348-0.048,0.681,0,0.999   s0.138,0.621,0.27,0.909c0.144,0.288,0.345,0.504,0.603,0.647c0.258,0.145,0.585,0.216,0.981,0.216   c0.096,0,0.189-0.006,0.279-0.018c0.09-0.012,0.183-0.023,0.279-0.036c0.096-0.023,0.189-0.048,0.279-0.072   c0.09-0.023,0.183-0.054,0.279-0.09c0.18-0.071,0.36-0.155,0.54-0.252c0.18-0.096,0.354-0.204,0.522-0.324v-0.035L139.349,94.604z"/>
	<path class="st0" d="M151.571,89.043c0.204-0.036,0.411-0.084,0.621-0.145c0.21-0.06,0.411-0.132,0.603-0.216   c0.204-0.084,0.405-0.171,0.603-0.261c0.198-0.09,0.393-0.189,0.585-0.297l0.288,0.107c-0.036,0.097-0.072,0.189-0.108,0.279   s-0.066,0.178-0.09,0.261c-0.048,0.084-0.087,0.169-0.117,0.252c-0.03,0.085-0.057,0.169-0.081,0.252   c-0.036,0.085-0.069,0.172-0.099,0.262s-0.057,0.177-0.081,0.261c-0.012,0.048-0.024,0.093-0.036,0.135   c-0.012,0.042-0.018,0.081-0.018,0.117c-0.012,0.048-0.024,0.093-0.036,0.135c-0.012,0.042-0.024,0.081-0.036,0.117l-0.396,1.53   c-0.024,0.12-0.051,0.228-0.081,0.324c-0.03,0.096-0.057,0.191-0.081,0.287c-0.012,0.049-0.024,0.094-0.036,0.136   c-0.012,0.042-0.024,0.087-0.036,0.135c-0.012,0.048-0.024,0.093-0.036,0.135c-0.012,0.042-0.024,0.087-0.036,0.135   c-0.036,0.097-0.069,0.192-0.099,0.288c-0.03,0.097-0.057,0.192-0.081,0.288c-0.012,0.049-0.024,0.097-0.036,0.145   c-0.012,0.048-0.024,0.09-0.036,0.126c-0.012,0.048-0.024,0.096-0.036,0.144c-0.012,0.048-0.024,0.097-0.036,0.145   c-0.048,0.216-0.081,0.398-0.099,0.549c-0.018,0.15-0.016,0.272,0.009,0.369c0.024,0.096,0.105,0.168,0.243,0.216   c0.138,0.048,0.321,0.072,0.549,0.072l0.09-0.036l-0.144,0.594c-0.156,0-0.306,0-0.45,0s-0.288-0.006-0.432-0.018   c-0.072,0-0.144-0.003-0.216-0.01c-0.072-0.006-0.138-0.009-0.198-0.009c-0.072-0.012-0.144-0.018-0.216-0.018   c-0.072,0-0.144,0-0.216,0c-0.024,0-0.051,0-0.081,0c-0.03,0-0.057,0-0.081,0c-0.012,0-0.027,0-0.045,0c-0.018,0-0.033,0-0.045,0   c-0.036,0.012-0.075,0.018-0.117,0.018c-0.042,0-0.081,0-0.117,0c-0.084,0-0.162,0-0.234,0c-0.072,0-0.144,0-0.216,0   c-0.084,0.013-0.165,0.021-0.243,0.027c-0.078,0.006-0.153,0.009-0.225,0.009c-0.084,0-0.165,0-0.243,0s-0.153,0-0.225,0   l0.144-0.594c0.252,0.024,0.468,0.015,0.648-0.027c0.18-0.042,0.317-0.104,0.414-0.188s0.183-0.207,0.261-0.369   s0.153-0.369,0.225-0.621c0.036-0.132,0.072-0.268,0.108-0.405s0.072-0.279,0.108-0.423c0.036-0.132,0.072-0.271,0.108-0.414   c0.036-0.144,0.072-0.288,0.108-0.432c0.036-0.097,0.063-0.189,0.081-0.279c0.018-0.09,0.039-0.177,0.063-0.261   c0.012-0.048,0.024-0.097,0.036-0.145c0.012-0.048,0.024-0.096,0.036-0.144c0.036-0.132,0.072-0.268,0.108-0.405   s0.072-0.279,0.108-0.423c0.06-0.204,0.093-0.384,0.099-0.54c0.006-0.156-0.009-0.282-0.045-0.378   c-0.048-0.096-0.135-0.168-0.261-0.216s-0.297-0.072-0.513-0.072V89.51L151.571,89.043z M155.099,84.569   c-0.072,0.103-0.162,0.189-0.27,0.262c-0.108,0.084-0.216,0.144-0.324,0.18c-0.108,0.036-0.216,0.054-0.324,0.054   s-0.207-0.018-0.297-0.054c-0.09-0.036-0.165-0.096-0.225-0.18c-0.072-0.072-0.114-0.156-0.126-0.252   c-0.012-0.097,0-0.198,0.036-0.307c0.023-0.119,0.069-0.23,0.135-0.333c0.066-0.102,0.159-0.194,0.279-0.278   c0.108-0.097,0.219-0.165,0.333-0.207c0.114-0.042,0.231-0.063,0.351-0.063s0.222,0.021,0.306,0.063s0.156,0.11,0.216,0.207   c0.048,0.084,0.078,0.177,0.09,0.278c0.012,0.103,0.006,0.207-0.018,0.315v-0.036C155.225,84.35,155.171,84.467,155.099,84.569z"/>
	<path class="st0" d="M170.83,95.289c-0.144,0.107-0.288,0.204-0.432,0.288s-0.294,0.162-0.45,0.233   c-0.156,0.049-0.312,0.09-0.468,0.126c-0.156,0.036-0.306,0.055-0.45,0.055c-0.18,0-0.321-0.024-0.423-0.072   c-0.102-0.048-0.171-0.126-0.207-0.234c-0.036-0.107-0.054-0.225-0.054-0.351s0.012-0.267,0.036-0.423   c-0.192,0.156-0.393,0.306-0.603,0.449c-0.21,0.145-0.417,0.276-0.621,0.396c-0.108,0.048-0.219,0.093-0.333,0.135   c-0.114,0.042-0.225,0.075-0.333,0.1c-0.108,0.023-0.219,0.045-0.333,0.062c-0.114,0.019-0.225,0.027-0.333,0.027   c-0.252,0-0.468-0.039-0.648-0.117s-0.33-0.195-0.45-0.351c-0.12-0.168-0.189-0.354-0.207-0.559   c-0.018-0.204,0.002-0.426,0.063-0.666c0.072-0.252,0.174-0.471,0.306-0.657c0.132-0.186,0.3-0.339,0.504-0.459   c0.204-0.119,0.411-0.228,0.621-0.323c0.21-0.097,0.429-0.181,0.657-0.252c0.024-0.013,0.054-0.024,0.09-0.036   s0.072-0.024,0.108-0.036c0.024,0,0.042-0.003,0.054-0.009c0.012-0.006,0.03-0.016,0.054-0.027c0.012,0,0.027-0.003,0.045-0.009   s0.033-0.016,0.045-0.027l2.124-0.738l0.162-0.594c0.012-0.012,0.021-0.033,0.027-0.062c0.006-0.03,0.009-0.058,0.009-0.081   c0-0.036,0.003-0.069,0.009-0.1c0.006-0.029,0.015-0.062,0.027-0.099c0.024-0.072,0.042-0.145,0.054-0.216   c0.012-0.072,0.024-0.15,0.036-0.234c0.024-0.155,0.03-0.306,0.018-0.45c-0.012-0.144-0.036-0.281-0.072-0.414   c-0.036-0.132-0.108-0.233-0.216-0.306c-0.108-0.072-0.252-0.108-0.432-0.108c-0.048,0-0.096,0.004-0.144,0.01   c-0.048,0.006-0.102,0.015-0.162,0.026c-0.024,0.013-0.051,0.021-0.081,0.027c-0.03,0.006-0.063,0.015-0.099,0.027   c-0.036,0.012-0.069,0.021-0.099,0.026c-0.03,0.007-0.057,0.016-0.081,0.027c-0.12,0.048-0.237,0.099-0.351,0.153   c-0.114,0.054-0.225,0.116-0.333,0.188s-0.198,0.147-0.27,0.225c-0.072,0.079-0.12,0.166-0.144,0.262   c-0.06,0.144-0.123,0.261-0.189,0.351s-0.147,0.159-0.243,0.207c-0.084,0.048-0.183,0.087-0.297,0.117   c-0.114,0.03-0.243,0.051-0.387,0.062c-0.024,0-0.045-0.002-0.063-0.009c-0.018-0.006-0.039-0.015-0.063-0.026   c-0.012-0.024-0.018-0.045-0.018-0.063c0-0.018,0.006-0.039,0.018-0.062c0.036-0.132,0.084-0.255,0.144-0.369   s0.132-0.213,0.216-0.297c0.096-0.097,0.195-0.184,0.297-0.262c0.102-0.077,0.213-0.152,0.333-0.225   c0.06-0.036,0.123-0.072,0.189-0.108s0.141-0.077,0.225-0.126c0.072-0.048,0.146-0.096,0.225-0.144   c0.078-0.048,0.159-0.096,0.243-0.145c0.06-0.035,0.123-0.071,0.189-0.107s0.129-0.072,0.189-0.108s0.126-0.072,0.198-0.107   c0.072-0.036,0.144-0.072,0.216-0.108c0.084-0.036,0.171-0.072,0.261-0.108c0.09-0.035,0.183-0.071,0.279-0.107   c0.024-0.012,0.051-0.021,0.081-0.027c0.03-0.006,0.057-0.015,0.081-0.026c0.06-0.013,0.117-0.021,0.171-0.027   c0.054-0.006,0.105-0.009,0.153-0.009c0.384,0,0.687,0.065,0.909,0.197c0.222,0.133,0.357,0.331,0.405,0.595   c0.047,0.264,0.063,0.543,0.045,0.837s-0.063,0.597-0.135,0.909c0,0.012,0,0.023,0,0.035c-0.012,0.013-0.018,0.024-0.018,0.036   c-0.012,0.013-0.018,0.024-0.018,0.036c0,0.013,0,0.024,0,0.036c-0.012,0.072-0.03,0.142-0.054,0.207   c-0.024,0.066-0.042,0.129-0.054,0.189c-0.024,0.071-0.045,0.141-0.063,0.207c-0.018,0.065-0.039,0.129-0.063,0.188   c-0.036,0.132-0.072,0.265-0.108,0.396s-0.072,0.264-0.108,0.396c-0.012,0.072-0.03,0.145-0.054,0.216   c-0.024,0.072-0.042,0.139-0.054,0.198c-0.024,0.072-0.045,0.142-0.063,0.207c-0.018,0.066-0.039,0.129-0.063,0.189   c-0.036,0.132-0.072,0.264-0.108,0.396c-0.036,0.132-0.072,0.264-0.108,0.396c0,0.023-0.003,0.048-0.009,0.071   c-0.006,0.024-0.015,0.049-0.027,0.072c0,0.024-0.003,0.048-0.009,0.072c-0.006,0.023-0.015,0.048-0.027,0.071   c-0.012,0.108-0.018,0.207-0.018,0.298c0,0.09,0.006,0.183,0.018,0.278c0.012,0.084,0.045,0.147,0.099,0.189   c0.054,0.042,0.128,0.062,0.225,0.062c0.036,0,0.072-0.006,0.108-0.018c0.036-0.012,0.078-0.024,0.126-0.036   c0.036-0.023,0.075-0.045,0.117-0.062c0.042-0.019,0.087-0.039,0.135-0.063c0.012-0.012,0.024-0.021,0.036-0.027   c0.012-0.006,0.024-0.015,0.036-0.026c0.024-0.012,0.039-0.019,0.045-0.019s0.015-0.006,0.027-0.018   c0.012,0,0.024-0.006,0.036-0.019v-0.035L170.83,95.289z M168.986,92.373c-0.03,0.012-0.063,0.024-0.099,0.036   c-0.06,0.012-0.117,0.026-0.171,0.045c-0.054,0.018-0.117,0.039-0.189,0.062c-0.048,0.013-0.096,0.027-0.144,0.045   c-0.048,0.019-0.096,0.033-0.144,0.045c-0.06,0.024-0.114,0.043-0.162,0.055s-0.096,0.029-0.144,0.054   c-0.216,0.072-0.423,0.156-0.621,0.252c-0.198,0.097-0.393,0.198-0.585,0.306c-0.192,0.12-0.345,0.256-0.459,0.405   c-0.114,0.15-0.201,0.327-0.261,0.531c-0.048,0.144-0.063,0.276-0.045,0.396c0.018,0.12,0.063,0.229,0.135,0.324   c0.06,0.108,0.144,0.187,0.252,0.234s0.234,0.071,0.378,0.071c0.048,0,0.096-0.002,0.144-0.009   c0.048-0.006,0.096-0.009,0.144-0.009c0.096-0.023,0.192-0.054,0.288-0.09c0.096-0.036,0.192-0.078,0.288-0.126   c0.132-0.084,0.267-0.171,0.405-0.261c0.138-0.091,0.273-0.184,0.405-0.279c0.012-0.012,0.024-0.024,0.036-0.036   c0.024-0.012,0.039-0.021,0.045-0.027c0.006-0.006,0.015-0.015,0.027-0.026l0.558-2.053   C169.042,92.342,169.015,92.361,168.986,92.373z"/>
	<path class="st0" d="M186.077,86.486l-0.648,2.286h2.304l-0.432,0.721h-2.124l-0.594,2.178c-0.012,0.061-0.024,0.114-0.036,0.162   c-0.012,0.048-0.024,0.096-0.036,0.144c-0.024,0.097-0.045,0.192-0.063,0.288c-0.018,0.097-0.045,0.192-0.081,0.288   c-0.036,0.145-0.072,0.285-0.108,0.423c-0.036,0.139-0.072,0.273-0.108,0.405c0,0.012-0.003,0.027-0.009,0.045   c-0.006,0.018-0.009,0.033-0.009,0.045c-0.012,0.024-0.021,0.042-0.027,0.054c-0.006,0.013-0.009,0.03-0.009,0.055   c0,0.012-0.003,0.026-0.009,0.045c-0.006,0.018-0.009,0.033-0.009,0.045c-0.012,0.024-0.018,0.042-0.018,0.054   c0,0.013,0,0.03,0,0.054c-0.048,0.192-0.072,0.372-0.072,0.54c0,0.169,0.024,0.337,0.072,0.505   c0.024,0.155,0.108,0.272,0.252,0.351s0.33,0.117,0.558,0.117c0.084,0,0.165-0.006,0.243-0.019   c0.078-0.012,0.159-0.023,0.243-0.036c0.083-0.023,0.168-0.045,0.252-0.062s0.174-0.045,0.27-0.081l0.054,0.432   c-0.072,0.049-0.144,0.084-0.216,0.108c-0.072,0.024-0.144,0.054-0.216,0.09c-0.084,0.024-0.162,0.045-0.234,0.063   c-0.072,0.018-0.144,0.039-0.216,0.062c-0.144,0.024-0.288,0.051-0.432,0.081s-0.282,0.051-0.414,0.063c-0.012,0-0.027,0-0.045,0   c-0.018,0-0.033,0.006-0.045,0.018c-0.024,0-0.042,0-0.054,0c-0.012,0-0.024,0-0.036,0c-0.024,0-0.051,0-0.081,0   c-0.03,0-0.057,0-0.081,0c-0.3,0-0.549-0.033-0.747-0.099c-0.198-0.066-0.351-0.171-0.459-0.315   c-0.108-0.144-0.165-0.327-0.171-0.549c-0.006-0.222,0.033-0.478,0.117-0.765c0.012-0.036,0.021-0.075,0.027-0.117   c0.006-0.042,0.015-0.087,0.027-0.135c0.012-0.036,0.027-0.078,0.045-0.127c0.018-0.047,0.033-0.096,0.045-0.144   c0-0.023,0.002-0.045,0.009-0.062c0.006-0.019,0.015-0.039,0.027-0.063c0.012-0.012,0.021-0.03,0.027-0.054   c0.006-0.024,0.009-0.048,0.009-0.072s0.003-0.045,0.009-0.063c0.006-0.018,0.015-0.038,0.027-0.062   c0.012-0.012,0.021-0.03,0.027-0.054c0.006-0.024,0.009-0.048,0.009-0.072l1.008-3.762h-0.99l0.252-0.504   c0.24-0.133,0.477-0.285,0.711-0.459c0.234-0.174,0.459-0.369,0.675-0.586c0.216-0.216,0.411-0.44,0.585-0.675   c0.174-0.233,0.327-0.482,0.459-0.747v-0.036H186.077z"/>
	<path class="st0" d="M198.353,89.043c0.204-0.036,0.411-0.084,0.621-0.145c0.21-0.06,0.411-0.132,0.603-0.216   c0.204-0.084,0.405-0.171,0.603-0.261c0.198-0.09,0.393-0.189,0.586-0.297l0.287,0.107c-0.035,0.097-0.072,0.189-0.107,0.279   c-0.037,0.09-0.066,0.178-0.09,0.261c-0.049,0.084-0.088,0.169-0.117,0.252c-0.031,0.085-0.057,0.169-0.082,0.252   c-0.035,0.085-0.068,0.172-0.099,0.262s-0.057,0.177-0.081,0.261c-0.012,0.048-0.023,0.093-0.035,0.135   c-0.013,0.042-0.019,0.081-0.019,0.117c-0.013,0.048-0.024,0.093-0.036,0.135s-0.023,0.081-0.035,0.117l-0.397,1.53   c-0.024,0.12-0.051,0.228-0.081,0.324c-0.03,0.096-0.057,0.191-0.081,0.287c-0.012,0.049-0.024,0.094-0.036,0.136   c-0.012,0.042-0.024,0.087-0.036,0.135c-0.012,0.048-0.024,0.093-0.036,0.135c-0.012,0.042-0.024,0.087-0.036,0.135   c-0.036,0.097-0.069,0.192-0.099,0.288c-0.03,0.097-0.057,0.192-0.081,0.288c-0.012,0.049-0.024,0.097-0.036,0.145   c-0.012,0.048-0.024,0.09-0.036,0.126c-0.012,0.048-0.024,0.096-0.036,0.144c-0.012,0.048-0.024,0.097-0.036,0.145   c-0.048,0.216-0.081,0.398-0.099,0.549c-0.018,0.15-0.016,0.272,0.009,0.369c0.024,0.096,0.105,0.168,0.243,0.216   c0.138,0.048,0.321,0.072,0.549,0.072l0.09-0.036l-0.144,0.594c-0.156,0-0.306,0-0.45,0s-0.288-0.006-0.432-0.018   c-0.072,0-0.144-0.003-0.216-0.01c-0.072-0.006-0.138-0.009-0.198-0.009c-0.072-0.012-0.144-0.018-0.216-0.018   c-0.072,0-0.144,0-0.216,0c-0.024,0-0.051,0-0.081,0c-0.03,0-0.057,0-0.081,0c-0.012,0-0.027,0-0.045,0c-0.018,0-0.033,0-0.045,0   c-0.036,0.012-0.075,0.018-0.117,0.018c-0.042,0-0.081,0-0.117,0c-0.084,0-0.162,0-0.234,0c-0.072,0-0.144,0-0.216,0   c-0.084,0.013-0.165,0.021-0.243,0.027c-0.078,0.006-0.153,0.009-0.225,0.009c-0.084,0-0.165,0-0.243,0s-0.153,0-0.225,0   l0.144-0.594c0.252,0.024,0.468,0.015,0.648-0.027c0.18-0.042,0.317-0.104,0.414-0.188s0.183-0.207,0.261-0.369   s0.153-0.369,0.225-0.621c0.036-0.132,0.072-0.268,0.108-0.405s0.072-0.279,0.108-0.423c0.036-0.132,0.072-0.271,0.108-0.414   c0.036-0.144,0.072-0.288,0.108-0.432c0.036-0.097,0.063-0.189,0.081-0.279c0.018-0.09,0.039-0.177,0.063-0.261   c0.012-0.048,0.024-0.097,0.036-0.145c0.012-0.048,0.024-0.096,0.036-0.144c0.036-0.132,0.072-0.268,0.108-0.405   s0.072-0.279,0.108-0.423c0.06-0.204,0.093-0.384,0.099-0.54c0.006-0.156-0.009-0.282-0.045-0.378   c-0.048-0.096-0.135-0.168-0.261-0.216s-0.297-0.072-0.513-0.072V89.51L198.353,89.043z M201.881,84.569   c-0.072,0.103-0.162,0.189-0.27,0.262c-0.109,0.084-0.217,0.144-0.324,0.18s-0.217,0.054-0.324,0.054s-0.207-0.018-0.297-0.054   s-0.165-0.096-0.225-0.18c-0.072-0.072-0.115-0.156-0.127-0.252c-0.012-0.097,0-0.198,0.037-0.307   c0.023-0.119,0.068-0.23,0.135-0.333c0.065-0.102,0.158-0.194,0.279-0.278c0.107-0.097,0.219-0.165,0.332-0.207   s0.23-0.063,0.352-0.063c0.119,0,0.221,0.021,0.305,0.063s0.156,0.11,0.217,0.207c0.049,0.084,0.078,0.177,0.09,0.278   c0.012,0.103,0.006,0.207-0.018,0.315v-0.036C202.006,84.35,201.953,84.467,201.881,84.569z"/>
	<path class="st0" d="M219.025,93.696c-0.318,0.462-0.724,0.872-1.216,1.232c-0.492,0.372-0.992,0.646-1.503,0.819   c-0.51,0.174-1.028,0.261-1.557,0.261c-0.576,0-1.071-0.09-1.485-0.27c-0.414-0.181-0.753-0.456-1.017-0.828   s-0.423-0.792-0.477-1.261c-0.055-0.468-0.004-0.983,0.152-1.548c0.156-0.563,0.394-1.076,0.711-1.539   c0.318-0.462,0.729-0.879,1.233-1.251c0.492-0.371,0.996-0.65,1.512-0.837c0.516-0.186,1.05-0.278,1.603-0.278   c0.563,0,1.05,0.099,1.458,0.297c0.407,0.197,0.737,0.488,0.989,0.873c0.24,0.396,0.388,0.827,0.441,1.296   c0.054,0.468,0.009,0.978-0.135,1.529v-0.035C219.58,92.72,219.343,93.234,219.025,93.696z M218.332,92.157   c0.012-0.061,0.023-0.126,0.036-0.198c0-0.036,0.003-0.072,0.009-0.108s0.015-0.071,0.027-0.107c0-0.024,0.003-0.055,0.009-0.091   c0.006-0.035,0.009-0.071,0.009-0.107c0.024-0.336,0.012-0.657-0.036-0.963c-0.048-0.307-0.138-0.597-0.27-0.873   c-0.133-0.276-0.324-0.486-0.576-0.63c-0.252-0.145-0.558-0.216-0.918-0.216c-0.384,0-0.744,0.074-1.08,0.225   s-0.642,0.369-0.918,0.657c-0.288,0.3-0.528,0.608-0.72,0.927c-0.192,0.318-0.336,0.651-0.433,0.999c0,0.012,0,0.024,0,0.036v0.018   c-0.023,0.084-0.048,0.171-0.071,0.261c-0.024,0.091-0.043,0.184-0.055,0.279c-0.012,0.084-0.023,0.171-0.036,0.261   c-0.012,0.091-0.018,0.184-0.018,0.279c-0.024,0.324-0.012,0.633,0.036,0.927c0.048,0.295,0.132,0.579,0.252,0.855   c0.12,0.264,0.3,0.465,0.54,0.603c0.24,0.139,0.546,0.207,0.918,0.207c0.42,0,0.804-0.077,1.152-0.233   c0.348-0.156,0.659-0.39,0.936-0.702s0.507-0.639,0.693-0.981c0.186-0.342,0.333-0.698,0.44-1.07l0.019-0.019   c0-0.012,0-0.023,0-0.036l0.018-0.036C218.307,92.271,218.32,92.216,218.332,92.157z"/>
	<path class="st0" d="M233.038,92.93c0,0.036-0.006,0.069-0.019,0.1c-0.012,0.029-0.018,0.057-0.018,0.08   c-0.012,0.024-0.024,0.049-0.036,0.072c-0.012,0.024-0.018,0.048-0.018,0.072s-0.003,0.048-0.009,0.072   c-0.007,0.023-0.016,0.042-0.027,0.054c-0.013,0.024-0.021,0.048-0.027,0.072c-0.006,0.023-0.009,0.048-0.009,0.071   c-0.012,0.049-0.024,0.097-0.036,0.145s-0.024,0.096-0.036,0.144c-0.012,0.049-0.023,0.094-0.036,0.136   c-0.012,0.042-0.023,0.087-0.035,0.135c-0.061,0.216-0.1,0.402-0.117,0.558c-0.019,0.156-0.016,0.282,0.009,0.378   c0.012,0.108,0.084,0.187,0.216,0.234s0.318,0.072,0.559,0.072l0.144-0.036l-0.144,0.594c-0.013,0-0.03,0-0.055,0s-0.042,0-0.054,0   c-0.024,0-0.045,0-0.063,0c-0.018,0-0.039,0-0.062,0c-0.036,0-0.072,0-0.108,0s-0.071,0-0.107,0c-0.12,0-0.24-0.003-0.36-0.009   s-0.234-0.015-0.342-0.027c-0.061,0-0.117,0-0.171,0c-0.055,0-0.111-0.006-0.171-0.018c-0.049,0-0.1,0-0.153,0s-0.111,0-0.171,0   c-0.036,0-0.075,0-0.117,0s-0.081,0-0.117,0c-0.036,0.012-0.075,0.018-0.117,0.018s-0.08,0-0.116,0s-0.072,0-0.108,0   s-0.072,0-0.108,0c-0.048,0-0.09,0-0.126,0c-0.035,0-0.071,0-0.107,0c-0.084,0.013-0.165,0.021-0.243,0.027   s-0.153,0.009-0.225,0.009c-0.072,0-0.145,0-0.217,0c-0.071,0-0.144,0-0.216,0l0.145-0.594c0.239,0.024,0.446,0.018,0.621-0.019   c0.174-0.036,0.314-0.096,0.423-0.18c0.096-0.072,0.188-0.189,0.278-0.351c0.091-0.162,0.165-0.369,0.226-0.621   c0.036-0.132,0.072-0.268,0.107-0.405c0.036-0.138,0.072-0.279,0.108-0.423c0.036-0.096,0.063-0.192,0.081-0.288   s0.039-0.192,0.063-0.288c0.012-0.048,0.023-0.096,0.035-0.144s0.024-0.097,0.036-0.145s0.024-0.093,0.036-0.135   s0.024-0.087,0.036-0.135c0.023-0.097,0.048-0.189,0.072-0.279c0.023-0.09,0.048-0.183,0.071-0.279   c0.024-0.072,0.046-0.144,0.063-0.216s0.033-0.144,0.045-0.216c0.024-0.061,0.045-0.126,0.063-0.198   c0.018-0.072,0.032-0.144,0.045-0.216c0.06-0.216,0.096-0.405,0.107-0.567s0.006-0.284-0.018-0.369   c-0.024-0.096-0.103-0.164-0.234-0.207c-0.132-0.041-0.306-0.062-0.521-0.062l0.126-0.504c0.203-0.048,0.398-0.105,0.585-0.171   c0.186-0.066,0.375-0.142,0.566-0.226c0.097-0.036,0.192-0.074,0.288-0.116s0.198-0.081,0.307-0.117   c0.096-0.048,0.191-0.096,0.287-0.145c0.097-0.048,0.192-0.096,0.288-0.144l0.307,0.126c-0.024,0.06-0.045,0.117-0.063,0.171   c-0.018,0.054-0.039,0.111-0.062,0.171c-0.024,0.048-0.045,0.099-0.063,0.153c-0.018,0.054-0.039,0.11-0.062,0.171   c-0.036,0.107-0.072,0.213-0.108,0.314c-0.036,0.103-0.066,0.201-0.09,0.298c0.023-0.013,0.045-0.024,0.062-0.036   c0.019-0.012,0.039-0.024,0.063-0.036c0.012-0.012,0.029-0.024,0.054-0.036s0.042-0.024,0.055-0.036   c0.048-0.023,0.093-0.048,0.135-0.072c0.042-0.023,0.087-0.048,0.135-0.071c0.191-0.12,0.393-0.234,0.604-0.343   c0.209-0.107,0.429-0.216,0.656-0.323c0.156-0.072,0.303-0.129,0.441-0.171c0.138-0.042,0.279-0.075,0.423-0.1   c0.072-0.012,0.144-0.021,0.216-0.027c0.072-0.006,0.145-0.009,0.216-0.009c0.42,0,0.753,0.069,0.999,0.207   c0.246,0.139,0.411,0.346,0.495,0.621c0.096,0.265,0.142,0.556,0.135,0.873c-0.006,0.318-0.057,0.657-0.152,1.017   c-0.036,0.133-0.072,0.268-0.108,0.405c-0.036,0.139-0.072,0.273-0.107,0.405c-0.036,0.132-0.072,0.264-0.108,0.396   c-0.036,0.133-0.072,0.265-0.108,0.396c-0.048,0.132-0.09,0.268-0.126,0.405c-0.035,0.138-0.071,0.272-0.107,0.404   c-0.036,0.133-0.072,0.265-0.108,0.396s-0.072,0.264-0.107,0.396c-0.013,0.013-0.019,0.024-0.019,0.036c0,0.013,0,0.024,0,0.036   c-0.012,0.013-0.018,0.03-0.018,0.054c-0.024,0.085-0.045,0.172-0.063,0.262c-0.018,0.09-0.026,0.171-0.026,0.243   c-0.013,0.071-0.01,0.135,0.009,0.188c0.018,0.054,0.039,0.093,0.062,0.117c0.024,0.036,0.055,0.066,0.09,0.09   c0.036,0.024,0.078,0.042,0.127,0.054c0.047,0.013,0.096,0.024,0.144,0.036c0.048,0.013,0.096,0.019,0.144,0.019   c0.024,0,0.048,0,0.072,0s0.048,0,0.072,0c0.023,0,0.048,0,0.072,0c0.023,0,0.048,0,0.071,0l0.036-0.036l-0.144,0.594   c-0.013,0-0.03,0-0.055,0c-0.023,0-0.042,0-0.054,0c-0.024,0-0.045,0-0.062,0c-0.019,0-0.039,0-0.063,0c-0.036,0-0.072,0-0.107,0   c-0.036,0-0.072,0-0.108,0c-0.048,0-0.09,0-0.126,0s-0.072,0-0.108,0c-0.012,0-0.026,0-0.045,0c-0.018,0-0.039-0.006-0.062-0.018   c-0.013,0-0.027,0-0.045,0c-0.019,0-0.039,0-0.063,0c-0.036,0-0.075,0-0.117,0s-0.081-0.006-0.116-0.019c-0.049,0-0.091,0-0.126,0   c-0.036,0-0.072,0-0.108,0s-0.072,0-0.108,0s-0.071-0.006-0.107-0.018c-0.036,0-0.072,0-0.108,0s-0.072,0-0.107,0   c-0.036,0-0.072,0-0.108,0s-0.072,0-0.108,0c-0.048,0.012-0.09,0.018-0.126,0.018s-0.071,0-0.107,0s-0.072,0-0.108,0   s-0.072,0-0.107,0c-0.036,0.013-0.072,0.019-0.108,0.019s-0.072,0-0.108,0c-0.023,0-0.045,0-0.062,0c-0.019,0-0.039,0-0.063,0   c-0.012,0.012-0.026,0.018-0.045,0.018c-0.018,0-0.039,0-0.062,0c-0.036,0-0.072,0-0.108,0s-0.072,0-0.107,0   c-0.036,0-0.072,0-0.108,0s-0.072,0-0.108,0c-0.035,0-0.071,0-0.107,0s-0.072,0-0.108,0l0.145-0.594   c0.264,0.024,0.482,0.015,0.656-0.027s0.31-0.104,0.405-0.188c0.096-0.097,0.183-0.226,0.261-0.388s0.153-0.362,0.226-0.603   c0.012-0.036,0.021-0.069,0.026-0.1c0.007-0.029,0.016-0.062,0.027-0.099c0.012-0.072,0.027-0.141,0.045-0.207   c0.019-0.065,0.039-0.135,0.063-0.207c0.012-0.06,0.023-0.114,0.036-0.162c0.012-0.048,0.029-0.102,0.054-0.162   c0.012-0.048,0.023-0.099,0.036-0.152c0.012-0.055,0.023-0.105,0.036-0.153c0.023-0.096,0.048-0.195,0.071-0.297   c0.024-0.102,0.048-0.207,0.072-0.315c0.012-0.06,0.024-0.113,0.036-0.162c0.012-0.048,0.029-0.102,0.054-0.161   c0.012-0.048,0.027-0.1,0.045-0.153c0.019-0.054,0.033-0.105,0.045-0.153c0-0.012,0.003-0.026,0.01-0.045   c0.006-0.018,0.009-0.033,0.009-0.045c0-0.036,0.003-0.069,0.009-0.099c0.006-0.03,0.015-0.063,0.027-0.1   c0-0.023,0.003-0.048,0.009-0.071c0.006-0.024,0.015-0.055,0.027-0.091c0.012-0.023,0.021-0.048,0.026-0.071   c0.006-0.024,0.009-0.048,0.009-0.072c0.036-0.228,0.052-0.444,0.045-0.648c-0.006-0.203-0.033-0.401-0.08-0.594   c-0.061-0.18-0.169-0.317-0.324-0.414c-0.156-0.096-0.372-0.144-0.648-0.144c-0.204,0-0.405,0.023-0.603,0.071   c-0.198,0.049-0.399,0.12-0.604,0.217c-0.191,0.096-0.387,0.201-0.585,0.314c-0.198,0.114-0.381,0.237-0.549,0.369V90.14   L233.038,92.93z"/>
</g>
<path class="st0" d="M239.429,85.215c51.833,35.501,132-26.499,159,22.334C367.429,64.882,302.429,133.882,239.429,85.215z"/>
<path class="st0" d="M135.762,37.382c-28.5-22.5-58.5,1.25-95.5,1.5s-40.5-18.5-40.25-24.25c0-22.25,52.5-18.5,53.75,7  c-3.25-18.75-58.669-28.373-52.5-2c1.95,8.338,17.43,15.853,34.25,14.875c14.553-0.845,29.072-9.6,49.25-10.875  C114.762,20.882,131.512,31.382,135.762,37.382z"/>
</svg>