<svg id="Layer_1" data-name="Layer 1" xmlns="http://www.w3.org/2000/svg" viewBox="0 0 916.43 247.38"><defs><style>.cls-1{fill:#94d6da;}</style></defs><title>ANA_logo_outlined</title><path d="M146.69,167.29a2.16,2.16,0,0,1,1-.33h1l1,0a16.18,16.18,0,0,0,3.78-.58,6.4,6.4,0,0,0,2.49-2.74,100.2,100.2,0,0,0,4.86-12q1.29-3.7,1.62-4.49,1-2.49,2-5.24l3.91-10.93q.91-2.58,4.41-11.8.87-2.33,2.12-6.23l1.22-.08,1.45,0a57.56,57.56,0,0,1,3.15,7.6q.75,2.16,2.45,6.44L189.45,144l3.36,9.27q2.66,7.89,3.49,9.7a7,7,0,0,0,1.54,2.39,6.09,6.09,0,0,0,1.56.5q1.35.34,1.89.5a17,17,0,0,1,2.66.92,2.28,2.28,0,0,1,.17.71,2.41,2.41,0,0,1-.12.62l-1.87,0q-2.12,0-7.48-.13l-4.16-.09-5,.06c-.33,0-.67,0-1,0s-.64,0-.89,0h-.91a2.05,2.05,0,0,1-.83-.25A3.1,3.1,0,0,1,182,167a2.7,2.7,0,0,1,.91-.29l4.36-.29a7.9,7.9,0,0,0,2.58-.46,4,4,0,0,0,.25-1.13A18.08,18.08,0,0,0,189,161q-.75-2.08-1.31-4t-4.42-12.32a18.18,18.18,0,0,0-3-.29l-8.89.09-2.62,0a25.74,25.74,0,0,0-3.12.21q-.54,1.25-.71,1.79l-3.66,11.43A57.66,57.66,0,0,0,159,165a3.77,3.77,0,0,0,.37,1.25,18.25,18.25,0,0,0,2.33.46l5.65.5c.3.25.46.47.46.66a2.4,2.4,0,0,1-.12.62q-1.87,0-2.87,0-3.33,0-7.73-.21-2-.08-2.91-.08t-3,.08q-1.41.08-2,.08c-.66,0-1.52,0-2.58-.13v-.25A2.7,2.7,0,0,1,146.69,167.29Zm19.83-24.93q4.45.25,10.14.25,3.24,0,5.69-.21a28.38,28.38,0,0,0-1-3q-2.7-7.23-3-8l-3.78-9.59-.41-.75q-.25.5-1.83,4.28-2.66,6.48-3.83,10.09-.54,1.62-1.12,3.22a21.66,21.66,0,0,0-.73,2.24,7.28,7.28,0,0,1-.44,1.31Z" transform="translate(-6.24 -4.43)"/><path d="M222.93,117.8l0-2q6.44,0,9.43-.33,1.16-.12,1.62-.12l1.12,0a23.1,23.1,0,0,1,3.24,3.32l.75.83,8.77,9.68,1.25,1.5q2.66,3.12,4.84,5.32t8.5,9.18l9.93,11q1.45,1.62,3.74,4l0-.66q-.25-5.78-.25-6.11L276,151l-.08-3.91v-1.79q0-1.7-.29-10.51,0-1.2-.33-4.55t-.29-5.88q0-4.57-.54-5.32-.37-.54-3.53-1.12-.75,0-2.33-.25a11.6,11.6,0,0,1-2.2-.21,1.49,1.49,0,0,1-.66-.71,3.82,3.82,0,0,1,.37-1.25,7.74,7.74,0,0,1,2.2-.33,18,18,0,0,1,2.89.29,18.77,18.77,0,0,0,3.1.29q1.91,0,5.94-.25,2.28-.16,3.16-.17h.71l-.08,1.29a5.42,5.42,0,0,1-1.83.35,9.5,9.5,0,0,0-2.16.35,4.73,4.73,0,0,0-1.79.79,3.26,3.26,0,0,0-1,2.2l.46,13.13.33,6,0,1.74.25,8.35q.25,8.56.25,14.88,0,1.37-.17,5.94l-1.94.17q-1.46-1.66-10-10.47-2-2-2.7-2.87l-3.57-4.11q-2.08-2.28-2.7-2.91l-.91-.91q-4.53-5.15-11.77-12.88-2-2.08-5.74-6.48-2.37-2.78-3-3.41a14.83,14.83,0,0,0-1.7-1.41l-.12,1.41q0,8.1.42,22.36l.29,13.76q0,1.75.21,3.36l1.45.33q3.95.38,7.77,1.12a3.53,3.53,0,0,0,.5.37l0,1.58a3.86,3.86,0,0,1-1.08.21,9.13,9.13,0,0,1-1.12-.08q-4.11-.33-10-.33-4.16,0-7.31.21l-.58,0a9.8,9.8,0,0,1-1.08-.08l0-1.25,1.08-.5,2-.29a19.32,19.32,0,0,0,3.82-.83,3,3,0,0,0,1.29-.87,57.48,57.48,0,0,0,.46-8.39q0-2.58-.12-9.43v-5.65l-.08-11.8q-.08-7.89-.54-9.31a2.76,2.76,0,0,0-1-1.33,8.76,8.76,0,0,0-4.14-1.41A27.35,27.35,0,0,1,222.93,117.8Z" transform="translate(-6.24 -4.43)"/><path d="M359.87,118.17l.46,6.32q.25,2.87.25,3.91l-1.16.21a23.55,23.55,0,0,0-6.92-9.47A16.18,16.18,0,0,0,342.38,116q-7.31,0-11.39,1.79a23.25,23.25,0,0,0-10.1,8.81,26.57,26.57,0,0,0-4.2,15.13,25.83,25.83,0,0,0,1.54,9.18,27.87,27.87,0,0,0,4.34,7.59,29.61,29.61,0,0,0,6.63,6.09,18.44,18.44,0,0,0,5.94,2.58,27.42,27.42,0,0,0,5.82.46,24.52,24.52,0,0,0,5.53-.71,12,12,0,0,0,4.57-1.89,6.12,6.12,0,0,0,2.1-2.68,19.51,19.51,0,0,0,.56-5.82q0-7.19-1-8.37t-6-1.56l-1.66-.12-1.12,0-.66-.13-.62-1a.94.94,0,0,1,.29-.54,80,80,0,0,1,9.39-.33q1.62,0,5.28.08l4.28.17,3.86,0q1.12,0,2.7.08a.6.6,0,0,1,.38.15.57.57,0,0,1,.08.35,4.34,4.34,0,0,1-.21,1.16,13.73,13.73,0,0,1-2.7.38l-2.7,0a2.77,2.77,0,0,0-2.2,1q-.42.46-.42,3.12l0,5.44a33.11,33.11,0,0,1-.46,7.15,3.47,3.47,0,0,1-1,1.64,11.9,11.9,0,0,1-3.32,1.73,32.18,32.18,0,0,1-6.57,2,61.86,61.86,0,0,1-10.6,1,36.77,36.77,0,0,1-13.48-2.1,27,27,0,0,1-9.06-5.84,23.89,23.89,0,0,1-5.42-7.56,28.27,28.27,0,0,1-2.45-11.43,29.12,29.12,0,0,1,3.84-14.23q3.84-7,12.4-11.32,6-3.07,16.37-3.08a45.36,45.36,0,0,1,11.7,1.25A29.8,29.8,0,0,1,359.87,118.17Z" transform="translate(-6.24 -4.43)"/><path d="M389.15,168a2,2,0,0,1,.71-.45,13.06,13.06,0,0,1,2.41-.33,16.5,16.5,0,0,0,5-.75,4,4,0,0,0,.58-2.33l0-2.92,0-10.57-.09-5,0-10.45-.21-11.86q0-4.25-.54-4.79-.75-.79-4.45-.92a19.36,19.36,0,0,1-2.78-.25.86.86,0,0,1-.54-.75,2,2,0,0,1,.21-.79,1.41,1.41,0,0,1,.66-.21c.39,0,.86,0,1.41,0a50.09,50.09,0,0,0,5.07.25l3.08-.08L407,116q5.49,0,8.56-.12t4.16-.12q1,0,4.74.17l5.9,0,.71.12,3.45-.12.42.21a2.25,2.25,0,0,1,.29.71,12.79,12.79,0,0,1-.19,1.79,14.58,14.58,0,0,0-.19,1.5q0,4.32.29,7.31a.4.4,0,0,1-.24.33,2.52,2.52,0,0,1-.82-.12,22,22,0,0,1-1.23-2.78,32.41,32.41,0,0,0-2.31-4.61,6.44,6.44,0,0,0-1.62-2.08,5.66,5.66,0,0,0-2.41-.33l-3.78-.08q-.92,0-1.79,0l-11.85.25h-1q-2.29,0-2.74.58-.71,1-.71,5.86,0,.5.21,10v5.78a3.76,3.76,0,0,0,1,.12h.71l2.08,0q2.16.08,2.91.08a8.2,8.2,0,0,0,.87,0q4.49-.17,11.55-.17c1.47-.25,2.33-.54,2.57-.87q.63-.75.94-3.91t1.39-3.57a2.38,2.38,0,0,1,1,.21,2.56,2.56,0,0,1,.09.62,8.73,8.73,0,0,1-.09,1q-.21,1.54-.21,9.64,0,2.16.23,4.82c.15,1.77.23,2.73.23,2.87a5.39,5.39,0,0,1-.13,1,1.31,1.31,0,0,1-.54.17h-.29a15.39,15.39,0,0,1-1.29-3.61q-1.08-4.2-2.26-5.26a5.7,5.7,0,0,0-3.84-1.06q-.58,0-2.12.06t-4.57.06h-2.7a70,70,0,0,0-7.56.25l0,1.37,0,7.66,0,4.83,0,4.7q0,4.25.54,4.91c.47.61,1.5.92,3.07.92l2.54,0,2.6.06q2.26.06,5.59.06,8,0,10.68-.69a9.26,9.26,0,0,0,4.38-2.44q1.72-1.75,4.34-7.55.79-1.7,1.58-1.71a1.46,1.46,0,0,1,.83.33,45.77,45.77,0,0,0-1.37,5.4,46.49,46.49,0,0,0-.54,5.94,3.79,3.79,0,0,1-.66,2.29h-.91l-11.68.12-5.24,0-12.47.17H403q-1,0-1.79,0-7.48.33-11,.33a1.32,1.32,0,0,1-.85-.2.77.77,0,0,1-.23-.61Z" transform="translate(-6.24 -4.43)"/><path d="M460.4,168.87a2.5,2.5,0,0,1,.33-1.12,38,38,0,0,1,6.32-1.17,3.7,3.7,0,0,0,2.62-.91q.41-.54.5-4l.29-11,0-7.44,0-9.73v-2.58q0-8.78-.08-10.94a4.84,4.84,0,0,0-.33-1.16,9.79,9.79,0,0,0-1.82-.66q-.73-.17-6.53-1.21c0-.3,0-.53,0-.66s0-.39,0-.66q.79,0,2.58.09l6.33.24,3.66.08,1.08,0,1.21.08q2.46,0,2.83,0l3.33-.25q3.37,0,4.74.12a7.38,7.38,0,0,1-.29,1.62q-.46.08-4.32.23a16.31,16.31,0,0,0-4.45.48q-1,.54-1,3.32,0,.67-.08,2.7v2.49l0,7.69v2.62l.08,13.75-.12,11.72,0,2.58q0,1.25.42,1.54,1,0,6.11.09h2.83l7.19-.25a13.1,13.1,0,0,0,4-.56,19.31,19.31,0,0,0,4-2.81,13.35,13.35,0,0,0,2.66-3.08c.14-.22.37-.55.71-1a23.58,23.58,0,0,0,2.12-4.32h1.37q-.25,1.5-.54,2.83-1.21,5.86-1.66,9.76c-.06.56-.11,1.07-.17,1.54l-15.54-.46q-20,0-23.77.37c-.77.05-1.59.08-2.45.08Z" transform="translate(-6.24 -4.43)"/><path d="M565.13,117.8l0-2q6.44,0,9.43-.33c.78-.08,1.32-.12,1.62-.12l1.12,0a23.09,23.09,0,0,1,3.24,3.32l.75.83,8.77,9.68,1.25,1.5q2.66,3.12,4.84,5.32t8.5,9.18l9.93,11q1.46,1.62,3.74,4l0-.66q-.25-5.78-.25-6.11l.17-2.49-.08-3.91v-1.79q0-1.7-.29-10.51,0-1.2-.33-4.55t-.29-5.88q0-4.57-.54-5.32-.37-.54-3.53-1.12c-.5,0-1.28-.11-2.33-.25a11.6,11.6,0,0,1-2.2-.21,1.5,1.5,0,0,1-.66-.71,3.82,3.82,0,0,1,.38-1.25,7.72,7.72,0,0,1,2.2-.33,18,18,0,0,1,2.89.29,18.76,18.76,0,0,0,3.1.29q1.91,0,5.94-.25,2.28-.16,3.16-.17h.71l-.08,1.29a5.41,5.41,0,0,1-1.83.35,9.51,9.51,0,0,0-2.16.35,4.73,4.73,0,0,0-1.79.79,3.26,3.26,0,0,0-1,2.2l.46,13.13.33,6,0,1.74.25,8.35q.25,8.56.25,14.88,0,1.37-.17,5.94l-1.94.17q-1.46-1.66-10-10.47-2-2-2.7-2.87l-3.58-4.11q-2.08-2.28-2.7-2.91l-.91-.91q-4.53-5.15-11.76-12.88-2-2.08-5.74-6.48-2.37-2.78-3-3.41a14.85,14.85,0,0,0-1.7-1.41l-.12,1.41q0,8.1.42,22.36l.29,13.76q0,1.75.21,3.36l1.46.33q3.95.38,7.77,1.12a3.53,3.53,0,0,0,.5.37l0,1.58a3.84,3.84,0,0,1-1.08.21,9.14,9.14,0,0,1-1.12-.08q-4.11-.33-10-.33-4.16,0-7.31.21l-.58,0a9.79,9.79,0,0,1-1.08-.08l0-1.25,1.08-.5,2-.29a19.36,19.36,0,0,0,3.82-.83,3,3,0,0,0,1.29-.87,57.34,57.34,0,0,0,.46-8.39q0-2.58-.12-9.43v-5.65l-.08-11.8q-.08-7.89-.54-9.31a2.77,2.77,0,0,0-1-1.33,8.76,8.76,0,0,0-4.14-1.41A27.32,27.32,0,0,1,565.13,117.8Z" transform="translate(-6.24 -4.43)"/><path d="M646.18,167.29a2.17,2.17,0,0,1,1-.33h1l1,0a16.18,16.18,0,0,0,3.78-.58,6.39,6.39,0,0,0,2.49-2.74,99.81,99.81,0,0,0,4.86-12q1.29-3.7,1.62-4.49,1-2.49,2-5.24l3.91-10.93q.91-2.58,4.4-11.8.87-2.33,2.12-6.23l1.22-.08,1.45,0a57.85,57.85,0,0,1,3.15,7.6q.75,2.16,2.45,6.44L688.95,144l3.36,9.27q2.66,7.89,3.49,9.7a7,7,0,0,0,1.54,2.39,6.11,6.11,0,0,0,1.56.5q1.35.34,1.89.5a17,17,0,0,1,2.66.92,2.28,2.28,0,0,1,.17.71,2.44,2.44,0,0,1-.13.62l-1.87,0q-2.12,0-7.48-.13L690,168.4l-5,.06c-.33,0-.67,0-1,0s-.64,0-.89,0h-.91a2.05,2.05,0,0,1-.83-.25,3.1,3.1,0,0,1,.21-1.12,2.7,2.7,0,0,1,.91-.29l4.36-.29a7.89,7.89,0,0,0,2.58-.46,4,4,0,0,0,.25-1.13,18,18,0,0,0-1.08-3.87q-.75-2.08-1.31-4t-4.42-12.32a18.18,18.18,0,0,0-3-.29l-8.89.09-2.62,0a25.72,25.72,0,0,0-3.12.21q-.54,1.25-.71,1.79l-3.66,11.43a58.11,58.11,0,0,0-2.33,7.19,3.78,3.78,0,0,0,.38,1.25,18.25,18.25,0,0,0,2.33.46l5.65.5c.31.25.46.47.46.66a2.38,2.38,0,0,1-.12.62q-1.87,0-2.87,0-3.32,0-7.73-.21c-1.36-.06-2.33-.08-2.91-.08s-1.59,0-3,.08c-.94.06-1.62.08-2,.08-.66,0-1.53,0-2.58-.13v-.25A2.7,2.7,0,0,1,646.18,167.29ZM666,142.36q4.45.25,10.14.25,3.24,0,5.69-.21a28.16,28.16,0,0,0-1-3q-2.7-7.23-3-8l-3.78-9.59-.42-.75q-.25.5-1.83,4.28-2.66,6.48-3.83,10.09-.54,1.62-1.13,3.22a22.26,22.26,0,0,0-.73,2.24,7.26,7.26,0,0,1-.44,1.31Z" transform="translate(-6.24 -4.43)"/><path d="M721.88,167.62a11.06,11.06,0,0,1,4.65-1.24,8.74,8.74,0,0,0,3.12-.46,1.51,1.51,0,0,0,.5-.62q.63-1.53.92-8.32.38-8.85,1.23-23.56.68-11.22.68-14v-1.08q-3-.62-9.51-1.33a2,2,0,0,1-.42-1,2,2,0,0,1,.29-.75,3.55,3.55,0,0,1,1.08-.25,13.2,13.2,0,0,1,1.45.17,41.69,41.69,0,0,0,5.6.29q1.16,0,4-.19c1.33-.1,2.07-.14,2.24-.14a5.69,5.69,0,0,1,1.53.25,3.84,3.84,0,0,1,.64.8l1.74,3.91,11.76,26,4.9,10.92a184.37,184.37,0,0,0,8.94-20.32,6.85,6.85,0,0,1,.5-1.21,13.83,13.83,0,0,0,.7-1.58q.33-.87,2.69-6.65,1-2.33,1.53-4,2.36-6.65,2.77-7.6a3.65,3.65,0,0,1,1.37-.33,14.92,14.92,0,0,1,1.71.12q2.34.12,7.58.12,3.25,0,5.33-.08a4.31,4.31,0,0,1,.08.66,3.45,3.45,0,0,1-.12.79,7.44,7.44,0,0,1-3.2.79,20.85,20.85,0,0,0-4.69.58,2.12,2.12,0,0,0-1.27,1,16.72,16.72,0,0,0-.48,3.82l0,1.91,0,2q0,6.23.33,20.94l0,8.14,0,5.24a12.12,12.12,0,0,0,.29,3.64,3,3,0,0,0,1.66,1.06,49.92,49.92,0,0,0,7.31,1.54.63.63,0,0,1,.29.54c0,.25,0,.53,0,.83h-1.92q-2.46,0-5.33-.14l-3.08-.15q-8.53,0-11.32.19c-1.14.09-1.86.14-2.16.14a1.41,1.41,0,0,1-.62-.17v-.54a2.74,2.74,0,0,1,.12-.79,12.66,12.66,0,0,1,3.74-.79,13.8,13.8,0,0,0,3.82-1.5,34.73,34.73,0,0,0,.37-6.45l-.12-8.4c0-.92,0-2.62.15-5.12s.14-6.56.14-12.19q0-6.7-.33-10.15-.7,1.46-2.77,6.32l-.62,1.58-.08.25-6.13,14.55-2.19,5.61-2.85,6.81q-1.86,4.7-3.19,8.31-.58,1.66-1,2.62l-1,0q-4.7-13.71-11.21-28.13t-9.13-19q-.34,1.79-.77,10.39-.56,10.47-.55,23.06a76.1,76.1,0,0,0,.58,8.86,2.75,2.75,0,0,0,1.2,2.09q1,.68,5.36.76a19.48,19.48,0,0,1,3.16.25,2.64,2.64,0,0,1,.29.94,2.33,2.33,0,0,1-.21.73l-12.9-.46q-1.41,0-4.4.18-1.66.11-4.77.15Z" transform="translate(-6.24 -4.43)"/><path d="M811.33,168a2,2,0,0,1,.71-.45,13.06,13.06,0,0,1,2.41-.33,16.5,16.5,0,0,0,5-.75,4,4,0,0,0,.58-2.33l0-2.92,0-10.57-.09-5,0-10.45-.21-11.86q0-4.25-.54-4.79-.75-.79-4.45-.92a19.36,19.36,0,0,1-2.78-.25.86.86,0,0,1-.54-.75,2,2,0,0,1,.21-.79,1.41,1.41,0,0,1,.66-.21c.39,0,.86,0,1.41,0a50.1,50.1,0,0,0,5.07.25l3.08-.08,7.31.17q5.49,0,8.56-.12t4.16-.12q1,0,4.74.17l5.9,0,.71.12,3.45-.12.42.21a2.25,2.25,0,0,1,.29.71,12.78,12.78,0,0,1-.19,1.79,14.61,14.61,0,0,0-.19,1.5q0,4.32.29,7.31a.4.4,0,0,1-.24.33,2.52,2.52,0,0,1-.82-.12,21.91,21.91,0,0,1-1.23-2.78,32.44,32.44,0,0,0-2.31-4.61,6.44,6.44,0,0,0-1.62-2.08,5.66,5.66,0,0,0-2.41-.33l-3.78-.08q-.92,0-1.79,0l-11.85.25h-1q-2.29,0-2.74.58-.71,1-.71,5.86,0,.5.21,10v5.78a3.76,3.76,0,0,0,1,.12h.71l2.08,0q2.16.08,2.91.08a8.2,8.2,0,0,0,.87,0q4.49-.17,11.55-.17c1.47-.25,2.33-.54,2.57-.87q.63-.75.94-3.91T851,131.8a2.38,2.38,0,0,1,1,.21,2.56,2.56,0,0,1,.09.62,8.73,8.73,0,0,1-.09,1q-.21,1.54-.21,9.64,0,2.16.23,4.82c.15,1.77.23,2.73.23,2.87a5.39,5.39,0,0,1-.13,1,1.31,1.31,0,0,1-.54.17h-.29a15.39,15.39,0,0,1-1.29-3.61q-1.08-4.2-2.26-5.26a5.7,5.7,0,0,0-3.84-1.06q-.58,0-2.12.06t-4.57.06h-2.7a70,70,0,0,0-7.56.25l0,1.37,0,7.66,0,4.83,0,4.7q0,4.25.54,4.91c.47.61,1.5.92,3.07.92l2.54,0,2.6.06q2.26.06,5.59.06,8,0,10.68-.69a9.26,9.26,0,0,0,4.38-2.44q1.72-1.75,4.34-7.55.79-1.7,1.58-1.71a1.46,1.46,0,0,1,.83.33,45.82,45.82,0,0,0-1.37,5.4,46.49,46.49,0,0,0-.54,5.94,3.79,3.79,0,0,1-.66,2.29h-.91l-11.68.12-5.24,0-12.47.17h-5.07q-1,0-1.79,0-7.48.33-11,.33a1.32,1.32,0,0,1-.85-.2.77.77,0,0,1-.23-.61Z" transform="translate(-6.24 -4.43)"/><path d="M915.16,117.34q.33,2.74.33,3.16l-.17,3.7a27.09,27.09,0,0,1-.21,3,1.6,1.6,0,0,1-.62.17l-.38-.08q-1.33-5.82-4.51-8.48a11.68,11.68,0,0,0-7.75-2.66,11.36,11.36,0,0,0-7.77,2.66,8,8,0,0,0-3,6.19,7.05,7.05,0,0,0,2.12,4.94q2.12,2.24,10.85,6.72a70.16,70.16,0,0,1,9.51,5.62,14.75,14.75,0,0,1,4.32,5.05,14,14,0,0,1,1.46,6.41,16.18,16.18,0,0,1-2.31,8.36A15,15,0,0,1,910.8,168a23.05,23.05,0,0,1-10.35,2,32.63,32.63,0,0,1-10.76-1.79,12.22,12.22,0,0,1-3.7-1.75,2,2,0,0,1-.66-1.41,10.23,10.23,0,0,1,.09-1.16,80.19,80.19,0,0,0,.62-8.06,7.29,7.29,0,0,1,.29-2.29.66.66,0,0,1,.62-.29.75.75,0,0,1,.6.27,2,2,0,0,1,.31,1,14.09,14.09,0,0,0,4.74,9.14,13.56,13.56,0,0,0,9.6,4,13.38,13.38,0,0,0,6-1.37,10.22,10.22,0,0,0,4.32-4,9.79,9.79,0,0,0,1.56-5,9.26,9.26,0,0,0-2.37-6.15q-2.37-2.78-9.51-6.5a70.92,70.92,0,0,1-9.31-5.42,20.49,20.49,0,0,1-5.24-5.9,11.73,11.73,0,0,1-1.29-5.61,12.55,12.55,0,0,1,4.57-9.79q4.57-4,12.26-4a24.8,24.8,0,0,1,7.31,1A17.47,17.47,0,0,1,915.16,117.34Z" transform="translate(-6.24 -4.43)"/><path d="M147.61,223.78l.59-.49.3-.26,4.81-4.73c.55-.54.91-.88,1.09-1a4.89,4.89,0,0,0,.58-.56q.31-.34.81-.81t.81-.79a15,15,0,0,0,1.11-1.05q2.9-2.61,7.64-7.22l4.46-4.27a9.36,9.36,0,0,1,.86-.83q1.27-1.44,2-2.2.21-.2,1-1.11a2.93,2.93,0,0,1,.47,0l.65,0,0,.22q-.14,1.68-.14,2.41a16.2,16.2,0,0,0-.16,2.35l-.26,3.64q0,.42-.12,2.14l-.71,9.48,0,.44,0,1.05v.3c0,.16-.07.28-.08.34l0,1.74,0,.26-.06.81q.16.28.87.36a11.55,11.55,0,0,1,2.67.51l0,.26a1.84,1.84,0,0,1-.1.49l-.88-.14-2.47-.16-1.79,0a25.83,25.83,0,0,1-2.85.2l-.48.06-.58,0-1,.08a3.93,3.93,0,0,1-.72-.08l0-.57a7,7,0,0,1,1.31-.22,10.78,10.78,0,0,0,2.2-.36,1.86,1.86,0,0,1,.36-.06h.1a1.13,1.13,0,0,0,.28-.4q.12-.38.41-3.19t.31-4.29q0-.73,0-1.07-.24,0-1.16,0-1.14,0-7.11.16l-4,.14-.42,0a3.5,3.5,0,0,0-.7.59,8.73,8.73,0,0,1-1,.89q-.87.93-2.65,2.51-.71.65-1.21,1.19l-1.52,1.64a4.23,4.23,0,0,0-.51.46l-.32.26-.28.42a2.77,2.77,0,0,1,0,.5,3.81,3.81,0,0,0,1.48.38l.91.1a9.45,9.45,0,0,0,1,.14,1.76,1.76,0,0,1,.42.12,2.22,2.22,0,0,1-.17.69l-3.88-.24-2.9.14c-.43,0-.76,0-1,.06h-.21l-.73.06-1,0a2.06,2.06,0,0,1-.55-.08,3.31,3.31,0,0,1-.06-.67l.24-.1,2.22-.2,1.37-.24A4.24,4.24,0,0,0,147.61,223.78Zm15.63-9.42.66,0h.48l2.5-.12,3.26-.22q.44-.06.84-.08a11.16,11.16,0,0,0,.1-1.11q.12-.79.14-1l.38-5.88.3-3.78a7.06,7.06,0,0,0-1.1.93,7.51,7.51,0,0,0-1.06.93l-4.67,4.45-.81.77a10.27,10.27,0,0,1-.92.89,10.65,10.65,0,0,0-.86.81,5.06,5.06,0,0,1-.54.5,6.27,6.27,0,0,0-.62.58,4.54,4.54,0,0,0-.59.57q-.3.34-.69.71t-.81.87a3.47,3.47,0,0,0,1.5.2l1,0Q162.49,214.36,163.25,214.36Z" transform="translate(-6.24 -4.43)"/><path d="M201.95,221.52q1,0,1.66,1.56a2.65,2.65,0,0,0,.63,1,1.05,1.05,0,0,0,.75.26,2.31,2.31,0,0,0,1.66-.81,2.54,2.54,0,0,0,.61-1.86,9.77,9.77,0,0,0-.69-2.92,14.6,14.6,0,0,1-1-4.41,7.06,7.06,0,0,1,1.25-4.13,4.49,4.49,0,0,1,4-1.8,2.63,2.63,0,0,1,1.84.63,2,2,0,0,1,.69,1.52,1.42,1.42,0,0,1-.33,1,1,1,0,0,1-.76.37,2,2,0,0,1-1.6-.86,5.55,5.55,0,0,0-1-1,1.75,1.75,0,0,0-.75-.12,1.31,1.31,0,0,0-1,.49,1.7,1.7,0,0,0-.43,1.17,15.57,15.57,0,0,0,1,4.56,15.23,15.23,0,0,1,1,4.54,4.07,4.07,0,0,1-.64,2.1,5.09,5.09,0,0,1-2,1.8,5.67,5.67,0,0,1-2.76.74,3.79,3.79,0,0,1-2.54-.73,2.23,2.23,0,0,1-.84-1.74,1.39,1.39,0,0,1,.34-1A1.18,1.18,0,0,1,201.95,221.52Z" transform="translate(-6.24 -4.43)"/><path d="M236.17,221.52q1,0,1.66,1.56a2.65,2.65,0,0,0,.63,1,1.05,1.05,0,0,0,.75.26,2.31,2.31,0,0,0,1.66-.81,2.54,2.54,0,0,0,.61-1.86,9.77,9.77,0,0,0-.69-2.92,14.59,14.59,0,0,1-1-4.41,7.06,7.06,0,0,1,1.25-4.13,4.49,4.49,0,0,1,4-1.8,2.63,2.63,0,0,1,1.84.63,2,2,0,0,1,.69,1.52,1.42,1.42,0,0,1-.33,1,1,1,0,0,1-.76.37,2,2,0,0,1-1.6-.86,5.54,5.54,0,0,0-.95-1,1.75,1.75,0,0,0-.75-.12,1.31,1.31,0,0,0-1,.49,1.7,1.7,0,0,0-.43,1.17,15.57,15.57,0,0,0,1,4.56,15.24,15.24,0,0,1,1,4.54,4.07,4.07,0,0,1-.64,2.1,5.08,5.08,0,0,1-2,1.8,5.67,5.67,0,0,1-2.76.74,3.79,3.79,0,0,1-2.54-.73,2.23,2.23,0,0,1-.84-1.74,1.39,1.39,0,0,1,.34-1A1.18,1.18,0,0,1,236.17,221.52Z" transform="translate(-6.24 -4.43)"/><path d="M282.76,213.49a13.17,13.17,0,0,1-2.84,8.33q-2.84,3.64-5.89,3.64a3.27,3.27,0,0,1-2.65-1.22,6,6,0,0,1-1-3.83,12.69,12.69,0,0,1,.79-4.05,12.09,12.09,0,0,1,2-3.81q.28-.34.65-.83a10.05,10.05,0,0,1,2.55-2.35,5.51,5.51,0,0,1,3-.95,3,3,0,0,1,2.39,1.18A6.15,6.15,0,0,1,282.76,213.49Zm-10.51,9.2a1.58,1.58,0,0,0,1.84,1.82,2.83,2.83,0,0,0,1.92-.93,24.58,24.58,0,0,0,5.22-12.37,2,2,0,0,0-.42-1.35,1.26,1.26,0,0,0-1-.49,3.57,3.57,0,0,0-2.49,1.4,19.82,19.82,0,0,0-3.8,6.47A16.05,16.05,0,0,0,272.25,222.69Z" transform="translate(-6.24 -4.43)"/><path d="M317,212a3,3,0,0,1-.46-.44,6.22,6.22,0,0,1-.38-.78,3.18,3.18,0,0,0-.42-.78.74.74,0,0,0-.51-.22,2.22,2.22,0,0,0-1.52.87,18.05,18.05,0,0,0-3,5.27,16.66,16.66,0,0,0-1.53,6.1,2.27,2.27,0,0,0,.26,1.27.69.69,0,0,0,.58.26,2.73,2.73,0,0,0,1.73-.85,15.54,15.54,0,0,0,2.58-3.15,3.23,3.23,0,0,1,.6-.08l.31,0a9.58,9.58,0,0,1-1.13,1.92,11.93,11.93,0,0,1-2.79,3.1,4.21,4.21,0,0,1-2.34.88,1.69,1.69,0,0,1-1.44-.67,4.52,4.52,0,0,1-.67-2.74,12.79,12.79,0,0,1,.78-3.94,17.48,17.48,0,0,1,2.29-4.48,23.27,23.27,0,0,1,2.48-3.1,8.69,8.69,0,0,1,2.36-1.61,4.07,4.07,0,0,1,1.78-.46,2,2,0,0,1,1.51.74,2.51,2.51,0,0,1,.66,1.73,1.33,1.33,0,0,1-.31.94,1,1,0,0,1-.74.33A2.22,2.22,0,0,1,317,212Z" transform="translate(-6.24 -4.43)"/><path d="M345.68,210.13a2.36,2.36,0,0,0-.63.06,9,9,0,0,0-1.39.87,11.67,11.67,0,0,0-1.72,1.66l-1.17.26a12.82,12.82,0,0,1,3.46-3.3,6.31,6.31,0,0,1,3-1.19,1,1,0,0,1,.7.23.81.81,0,0,1,.23.6,9,9,0,0,1-1.13,3.3q-.14.28-.67,1.46-1.21,2.65-2.59,5-.44.77-1,1.82-.28.57-.51,1a3.6,3.6,0,0,0-.63,1.56.35.35,0,0,0,.11.25.37.37,0,0,0,.27.11,1.67,1.67,0,0,0,.68-.24,9.75,9.75,0,0,0,1.81-1.35,11,11,0,0,0,1.86-2.15h.89a16.86,16.86,0,0,1-1.81,2.51,9.79,9.79,0,0,1-2.72,2.26,4.23,4.23,0,0,1-2,.65,1.49,1.49,0,0,1-1-.27.9.9,0,0,1-.32-.72q0-1.56,2.28-5.86l3.25-6.15a13.23,13.23,0,0,0,.71-1.5,1.76,1.76,0,0,0,.12-.47A1.25,1.25,0,0,0,345.68,210.13Zm1.15-9.08a1.76,1.76,0,0,1,.55-1.26,1.74,1.74,0,0,1,1.27-.55,1.6,1.6,0,0,1,1.17.49,1.53,1.53,0,0,1,.49,1.11,2.15,2.15,0,0,1-.61,1.48,1.81,1.81,0,0,1-1.33.38,1.48,1.48,0,0,1-1.09-.44A1.61,1.61,0,0,1,346.83,201.06Z" transform="translate(-6.24 -4.43)"/><path d="M385.49,210.34a2.72,2.72,0,0,0,.26-.55,1.87,1.87,0,0,1,.49-.79c.38,0,.65-.06.83-.06a1.66,1.66,0,0,1,.67.14l.06.24a1.07,1.07,0,0,1-.1.36,8.07,8.07,0,0,0-.26.77l-.16.4-1.34,3.62q-.85,2.45-1.49,3.9a27.91,27.91,0,0,0-1.1,3,10.87,10.87,0,0,1-.85,2.15l-.08.19c0,.08.07.18.21.31a7.25,7.25,0,0,0,1.44-1.09q1.51-1.52,1.8-1.88l.4-.49a4.24,4.24,0,0,1,.42.42,20,20,0,0,1-1.82,2.14,10.06,10.06,0,0,1-2.31,1.92,3.19,3.19,0,0,1-1.49.42,1,1,0,0,1-.67-.2.66.66,0,0,1-.22-.52,5.08,5.08,0,0,1,.2-1q.51-1.33.71-1.76t.55-1.31q.2-.55.83-1.9a11.27,11.27,0,0,0-1,1.13,29.58,29.58,0,0,1-3.87,3.9,14.21,14.21,0,0,1-2.41,1.35,6.31,6.31,0,0,1-1.66.34,2.85,2.85,0,0,1-1.08-.16,2,2,0,0,1-.81-.83,2.88,2.88,0,0,1-.23-1.31,8.43,8.43,0,0,1,.58-2.87,15.15,15.15,0,0,1,2-4,19.59,19.59,0,0,1,3.44-3.56,14.65,14.65,0,0,1,3.13-1.92,8.49,8.49,0,0,1,3.26-.81,4.52,4.52,0,0,1,.87.08A3.8,3.8,0,0,1,385.49,210.34Zm-9.87,13.26a3.17,3.17,0,0,0,.88-.34q.23-.12,1.63-1.11,2.54-2.49,2.88-2.85a17.75,17.75,0,0,0,1.65-2.16,21.29,21.29,0,0,0,1.06-1.9l.53-1.4a12.54,12.54,0,0,0,.28-1.42,1.56,1.56,0,0,0-.47-1.07,1.43,1.43,0,0,0-1-.3,3.37,3.37,0,0,0-1.4.26,10.29,10.29,0,0,0-2.39,1.54,17,17,0,0,0-2.81,3.27,20.28,20.28,0,0,0-1.91,3.32,8,8,0,0,0-.77,2.75,1.68,1.68,0,0,0,.31,1.11,1,1,0,0,0,.79.36Z" transform="translate(-6.24 -4.43)"/><path d="M416.36,210.28h-1.23l-.57,0-1.31,0H413a2.86,2.86,0,0,1,.35-1q2.95-.08,3.5-.14.39-1,.67-1.56.6-1.31,1.23-3.11a9.05,9.05,0,0,1,.44-1.07,7.72,7.72,0,0,1,1-.06,4.18,4.18,0,0,1,.93.1l0,.32a32.88,32.88,0,0,1-1.78,4.45,7.93,7.93,0,0,0-.34,1l.68.1h.42l.68,0,1.92,0a2.18,2.18,0,0,1-.24,1.09q-.8.08-2.09.08-.64,0-.82,0a4.37,4.37,0,0,0-1.18.2l-3.29,7.89q-.55,1.14-1.88,4.34a.49.49,0,0,0,.12.28l.26,0a2.33,2.33,0,0,0,1.35-.69,24,24,0,0,0,3.32-3.54,2.79,2.79,0,0,1,.59.42,42.43,42.43,0,0,1-2.8,3.22,15,15,0,0,1-2.05,1.62,13.39,13.39,0,0,1-1.5.94,2.48,2.48,0,0,1-.93.18,1.08,1.08,0,0,1-.73-.21.79.79,0,0,1-.24-.62,9.74,9.74,0,0,1,1-2.73l.85-1.88,3-7.18Q416,211.33,416.36,210.28Z" transform="translate(-6.24 -4.43)"/><path d="M448.78,210.13a2.36,2.36,0,0,0-.63.06,9,9,0,0,0-1.39.87,11.67,11.67,0,0,0-1.72,1.66l-1.17.26a12.81,12.81,0,0,1,3.46-3.3,6.31,6.31,0,0,1,3-1.19,1,1,0,0,1,.7.23.81.81,0,0,1,.23.6,9,9,0,0,1-1.13,3.3q-.14.28-.67,1.46-1.21,2.65-2.59,5-.44.77-1,1.82-.28.57-.51,1a3.6,3.6,0,0,0-.63,1.56.35.35,0,0,0,.11.25.37.37,0,0,0,.27.11,1.67,1.67,0,0,0,.68-.24,9.75,9.75,0,0,0,1.81-1.35,11,11,0,0,0,1.86-2.15h.89a16.86,16.86,0,0,1-1.81,2.51,9.78,9.78,0,0,1-2.72,2.26,4.23,4.23,0,0,1-2,.65,1.49,1.49,0,0,1-1-.27.9.9,0,0,1-.32-.72q0-1.56,2.28-5.86l3.25-6.15a13.23,13.23,0,0,0,.71-1.5,1.76,1.76,0,0,0,.12-.47A1.25,1.25,0,0,0,448.78,210.13Zm1.15-9.08a1.76,1.76,0,0,1,.55-1.26,1.74,1.74,0,0,1,1.27-.55,1.6,1.6,0,0,1,1.17.49,1.53,1.53,0,0,1,.49,1.11,2.15,2.15,0,0,1-.61,1.48,1.81,1.81,0,0,1-1.33.38,1.48,1.48,0,0,1-1.09-.44A1.61,1.61,0,0,1,449.93,201.06Z" transform="translate(-6.24 -4.43)"/><path d="M487.67,213.49a13.17,13.17,0,0,1-2.84,8.33q-2.84,3.64-5.89,3.64a3.27,3.27,0,0,1-2.65-1.22,6,6,0,0,1-1-3.83,12.69,12.69,0,0,1,.79-4.05,12.09,12.09,0,0,1,2-3.81q.28-.34.65-.83a10,10,0,0,1,2.55-2.35,5.51,5.51,0,0,1,3-.95,3,3,0,0,1,2.39,1.18A6.15,6.15,0,0,1,487.67,213.49Zm-10.51,9.2a1.58,1.58,0,0,0,1.84,1.82,2.83,2.83,0,0,0,1.92-.93,24.58,24.58,0,0,0,5.22-12.37,2,2,0,0,0-.42-1.35,1.26,1.26,0,0,0-1-.49,3.57,3.57,0,0,0-2.49,1.4,19.81,19.81,0,0,0-3.8,6.47A16.05,16.05,0,0,0,477.15,222.69Z" transform="translate(-6.24 -4.43)"/><path d="M517.09,211a.43.43,0,0,0-.11-.22.25.25,0,0,0-.17-.06q-1.05,0-3.27,3.32l-.32,0-.4,0a15.33,15.33,0,0,1,1.38-2.14,11.48,11.48,0,0,1,2-2.15,9.52,9.52,0,0,1,2.05-1.28,1.48,1.48,0,0,1,.59-.14l.3,0a1.07,1.07,0,0,1,.36.75,2.36,2.36,0,0,1,0,.49c0,.16-.11.41-.21.75q-.61,1.74-.89,2.45l-1.15,3q-.4,1-.79,2.18.16-.2.28-.38a59.44,59.44,0,0,1,4.05-5.27,17,17,0,0,1,3.59-3.36,3.67,3.67,0,0,1,1.92-.63,1.47,1.47,0,0,1,1.07.38,1.28,1.28,0,0,1,.38,1,3.08,3.08,0,0,1-.08.71,15.25,15.25,0,0,1-.63,2.14q-.49,1.37-2.55,6l-2,4.67-.08.26a.84.84,0,0,0,.14.36q1.13-.24,3.4-3.6l.83,0a21.85,21.85,0,0,1-2.06,2.91,9,9,0,0,1-2.39,2.1,2.9,2.9,0,0,1-1.52.42,1.12,1.12,0,0,1-.73-.2.58.58,0,0,1-.24-.44,9.16,9.16,0,0,1,1-3.32l2.93-6.41,1.13-2.69a9,9,0,0,0,.47-1.23,3,3,0,0,0,.08-.69.58.58,0,0,0-.14-.41A.47.47,0,0,0,525,210a1.47,1.47,0,0,0-.75.26,13.7,13.7,0,0,0-3.3,3.05,49.68,49.68,0,0,0-3.44,4.47,55.37,55.37,0,0,0-3.69,6.85,2,2,0,0,1-.59.83,3.36,3.36,0,0,1-1.46,0,.63.63,0,0,1-.08-.26,3,3,0,0,1,.2-.73q.44-1.31,2.18-5.54l.47-1.09Z" transform="translate(-6.24 -4.43)"/><path class="cls-1" d="M556.95,200.44c119.22,81.66,303.61-61,365.72,51.37C851.36,153.67,701.86,312.38,556.95,200.44Z" transform="translate(-6.24 -4.43)"/><path class="cls-1" d="M318.5,90.42C253,38.66,183.95,93.29,98.84,93.87S5.69,51.31,6.27,38.09C6.27-13.09,127-4.46,129.9,54.19,122.42,11.06-5-11.07,9.14,49.59,13.63,68.77,49.23,86.05,87.92,83.8c33.47-1.94,66.87-22.08,113.28-25C270.2,52.46,308.73,76.62,318.5,90.42Z" transform="translate(-6.24 -4.43)"/></svg>